<?xml version="1.0" encoding="UTF-8" standalone="no"?>
<svg
   xmlns:dc="http://purl.org/dc/elements/1.1/"
   xmlns:cc="http://creativecommons.org/ns#"
   xmlns:rdf="http://www.w3.org/1999/02/22-rdf-syntax-ns#"
   xmlns:svg="http://www.w3.org/2000/svg"
   xmlns="http://www.w3.org/2000/svg"
   width="1935.1182"
   height="1935.1182"
   viewBox="0 0 512 512"
   version="1.1"
   id="svg8">
  <defs
     id="defs2" />
  <metadata
     id="metadata5">
    <rdf:RDF>
      <cc:Work
         rdf:about="">
        <dc:format>image/svg+xml</dc:format>
        <dc:type
           rdf:resource="http://purl.org/dc/dcmitype/StillImage" />
        <dc:title></dc:title>
      </cc:Work>
    </rdf:RDF>
  </metadata>
  <g
     id="layer1"
     transform="translate(0,215)">
    <path
       id="path865"
       transform="matrix(0.26458333,0,0,0.26458333,0,-215)"
       d="M 930.42578,19.738281 C 619.58576,21.823308 339.47077,294.47004 331.20508,605.88281 279.05077,664.79208 292.8723,767.09159 297.85156,830.1875 232.40624,789.40361 73.511279,824.12259 110.14258,919.86914 c 51.33252,8.8958 174.11636,-28.25589 139.23047,80.15426 -47.20987,78.559 -112.61126,154.892 -105.79883,253.1856 -11.03221,161.6548 110.30023,324.5657 275.20312,341.1367 67.93921,14.7057 145.40656,-24.4685 199.48438,-33.584 -22.60305,99.9002 -153.1501,112.2826 -175.62695,201.4414 -12.52377,101.7983 116.86632,164.6866 201.24609,124.0117 152.13804,-49.9964 223.863,-207.1266 275.47461,-346.1093 11.6352,-99.2633 146.04433,-75.9281 153.45503,15.2539 76.7463,122.5799 138.906,266.5612 265.2364,346.9336 75.9594,39.2573 198.3349,-34.4383 169.8261,-125.9864 -35.8423,-91.0679 -114.1202,-160.0127 -153.4687,-248.4804 127.4667,38.3537 279.9484,4.6183 363.1582,-104.336 102.7878,-128.1102 90.0527,-330.9993 -26.7617,-446.15622 -82.2134,-55.71551 -20.0106,-163.1346 64,-107.85546 88.239,-83.12827 -92.0833,-151.42482 -156.9063,-108.48829 22.7438,-83.9733 15.5958,-175.65116 -57.7304,-224.46679 C 1505.5673,249.53963 1234.6314,14.28792 945.25,19.84375 c -4.94849,-0.104169 -9.89025,-0.138564 -14.82422,-0.105469 z m 25.14258,20.623047 c 273.20224,2.87331 533.22094,227.569422 560.58204,501.687502 0.7743,49.94697 -22.1842,101.92418 -31.9649,147.43555 C 1283.7324,485.61712 964.66552,434.21688 696.67773,514.4707 572.57298,554.26204 446.79655,621.09503 373.1875,732.28711 359.52273,801.06032 412.46727,881.64197 424.54883,933.88281 369.96134,878.6077 365.9855,785.34932 351.89844,710.63672 312.41285,407.07018 542.42199,97.885196 844.9375,49.689453 c 36.31858,-7.505802 73.64157,-9.107174 110.63086,-9.328125 z m 156.02144,40.322266 c 29.4149,51.543156 107.4769,120.079546 93.0684,201.285156 -9.5796,123.24866 -150.1019,68.02593 -228.98242,76.28711 -152.67908,4.90322 -305.70982,37.01896 -445.04687,99.76953 -94.7288,-39.68261 25.92272,-163.32374 53.49218,-225.08984 -75.81161,9.81895 -130.87017,128.27501 -166.47461,197.93359 -16.9432,50.88918 -52.02885,149.02834 -32.1582,180.82422 C 525.37177,456.45316 740.9553,387.7084 945.25,381.25977 c 194.2823,-10.38671 394.7763,55.86842 534.4824,193.38281 7.9424,-124.10684 -52.3537,-250.96533 -134.9394,-343.4043 -64.8039,-66.63122 -143.2223,-124.3146 -233.2032,-150.554686 z M 998.93359,399.76562 c -7.05234,-0.0183 -14.10462,0.0797 -21.15429,0.29493 -116.67334,-2.20717 -233.93494,19.67333 -341.375,64.49218 109.19278,-32.67444 224.32153,-62.48198 340.65429,-58.63476 112.92931,-5.13865 225.12241,28.68011 327.25191,68.73633 -93.8962,-48.22054 -199.5917,-74.61473 -305.37691,-74.88868 z m -368.2539,67.68165 c -17.98734,2.45125 13.46207,3.93005 0,0 z m -11.2168,4.35742 c -43.57225,13.32879 -79.06361,41.76646 -13.2832,8.68164 1.24119,-2.12598 25.37829,-7.04818 13.2832,-8.68164 z m 688.53321,5.7832 c -5.2848,3.70294 5.2883,3.69272 0,0 z m -356.9668,16.53516 c 128.9507,-0.85681 259.6603,30.77064 372.0137,93.97265 26.2107,84.03737 11.3772,184.42111 -52.6446,248.37696 75.2632,71.19774 35.0643,184.07764 -53.9023,219.15824 -75.1114,21.6042 -39.5782,127.4629 -28.9785,187.789 58.4876,146.9239 136.4231,286.351 223.125,418.3731 49.9472,60.2131 137.104,175.0812 20.1152,219.2285 -70.4548,36.7006 -104.4303,-12.2681 -122.041,-60.6426 -99.5967,-138.3527 -180.5255,-289.1543 -280.1856,-427.3652 -74.63417,-98.8623 -133.62769,57.8512 -158.90815,119.6328 -29.10259,72.01 -67.08584,150.6644 -96.0185,219.517 44.92037,-25.5492 -25.58747,78.9537 -4.81836,4.0469 -23.82837,53.1773 -78.79995,74.108 -91.80572,113.2623 -44.30015,9.7116 -97.67804,4.0347 -153.36719,7.8671 -93.04819,-28.7755 -73.70791,-149.7374 14.70703,-166.8261 94.24234,-75.0404 140.44766,-193.8065 180.71289,-303.9551 23.32404,-86.7584 47.63121,-183.1017 16.90625,-270.7148 -58.3406,-39.3651 -150.38331,-73.1522 -145.47461,-160.48052 8.21624,-60.74074 42.48149,-108.64799 -19.35937,-154.80469 C 541.69046,741.99158 499.5723,632.70103 570.85352,591.78125 686.4362,528.58218 819.15171,493.77158 951.0293,494.12305 Z m -391.59961,6.07031 c -15.8939,3.05477 6.47644,4.49891 0,0 z m -9.75586,5.77539 c -10.82619,2.83795 7.54707,1.95433 0,0 z m 609.50977,64.09766 c -44.432,-0.12348 -111.6061,70.52044 -31.4063,22.52539 51.6482,-29.34599 132.7276,39.41378 128.752,33.62695 -16.3678,-33.9751 -53.185,-56.78892 -90.9746,-55.59766 -2.0549,-0.37093 -4.1859,-0.54861 -6.3711,-0.55468 z m 378.9375,2.42578 c 84.0046,36.93642 -5.7931,140.30658 6.6523,209.29883 -0.271,47.26528 0.5281,129.78265 -61.1484,95.13476 6.5276,-102.72621 8.9984,-210.17185 54.4961,-304.43359 z m -891.92969,30.33593 c -45.2425,1.02095 -96.966,111.9175 -41.86329,40.46876 40.93558,-43.64205 114.4491,-11.99039 128.37696,-10.33399 -21.52532,-16.44384 -47.90708,-27.27295 -75.2207,-27.84961 -3.67206,-1.66956 -7.45886,-2.37168 -11.29297,-2.28516 z m 935.12309,21.83594 c 16.5651,71.97167 -2.1344,158.44384 -34.4024,226.34375 -3.3227,-71.43951 23.4086,-145.26379 27.8828,-218.08398 l 2.6563,-5.11719 z m -417.9688,11.55274 c -0.7683,-4.9e-4 -1.5396,0.0108 -2.3125,0.0312 -122.2205,5.43734 -139.4523,197.81581 -38.3828,248.19336 96.9204,50.5557 176.6056,-77.48506 141.2109,-162.64063 -12.8321,-44.36158 -52.1109,-85.55341 -100.5156,-85.58398 z m -833.16992,20.49804 c 18.53482,89.84255 29.20205,185.38855 70.32227,269.69336 -78.25858,-22.42288 -88.78799,-143.6403 -87.6836,-218.8789 -1.73986,-20.27943 0.34393,-37.81436 17.36133,-50.81446 z m 1113.69332,12.04883 c 33.0422,50.44119 -8.4732,132.67119 -17.7753,190.51953 -11.3327,44.30702 -68.9795,111.21183 -25.127,23.40039 26.7365,-68.49866 34.0883,-142.38598 42.9023,-213.91992 z m -744.12496,0.0703 c -98.25392,0.81231 -124.11529,129.86168 -75.13476,198.89258 43.44336,90.51704 180.6804,49.25608 180.80078,-46.23828 C 816.41497,754.89309 774.702,669.51456 699.74414,668.83398 Z m -251.66797,3.97071 c 6.19484,84.02518 17.96502,174.63812 55.63281,253.65625 13.03507,29.51401 67.64599,117.03677 11.32422,49.59961 -62.60247,-78.81977 -86.61878,-182.89832 -87.08008,-281.75782 6.72817,-6.30254 8.10174,-21.24819 20.12305,-21.49804 z m -123.74414,4.50976 c -15.86667,38.63831 8.92427,131.86793 0.75391,33.97266 l -0.0703,-18.96875 z m 789.42387,1.83008 c 75.3145,33.24247 -58.752,95.71214 -21.8809,14.20703 l 14.3555,-11.90429 z m 352.4921,7.4375 c 34.6725,32.22772 -11.4082,120.98668 -27.9589,154.87305 15.1773,-50.60835 16.8454,-105.25221 27.9589,-154.87305 z m -257.8027,3.08789 c 41.3987,25.41147 -26.6406,32.83061 0,0 z m -455.68553,26.93164 c 39.255,30.30128 -33.1109,23.73478 0,0 z m -101.08789,3.92969 c 1.07148,-0.002 2.18351,0.12915 3.33789,0.41406 71.96326,16.50443 -40.62522,106.89091 -24.36524,19.44922 4.11346,-7.30704 10.66962,-19.83957 21.02735,-19.86328 z M 1682.459,766.04492 c 58.3145,-0.3956 118.0329,116.48969 33.9941,72.33203 -13.8628,-13.11682 -95.275,-32.36523 -106.6465,43.31836 -2.0151,52.53167 18.7402,97.40739 55.4883,95.02539 19.7987,43.3374 -54.4789,-27.82972 -8.9844,18.94141 8.6198,18.05489 45.5831,-9.49169 31.3887,26.47459 -23.0558,-5.4165 85.5929,44.0727 46.3809,95.6524 53.5984,-1.9794 23.2795,114.1587 16.5957,89.0625 -3.7671,91.8869 -43.9838,184.3688 -123.6543,235.2109 -30.61,49.4775 -67.719,80.7106 -113.6719,42.8437 -45.4098,2.1262 -103.3547,5.1035 -150.8203,-8.7617 46.9445,72.7799 -89.1936,-18.7053 -13.4668,-4.5136 -22.1672,-8.4766 -41.2837,-21.4084 -54.6309,-40.8907 -50.7366,-93.3049 -102.8237,-193.8516 -101.6601,-302.5879 88.5906,-31.6146 98.1049,132.7688 187.1347,152.4766 76.3005,55.3101 199.4909,17.0842 217.6153,-78.584 26.7033,-103.9359 -89.86,-172.7887 -76.1153,-275.76951 37.0607,-55.12481 54.483,-165.57805 146.3458,-157.43359 4.8333,-1.8875 9.7651,-2.76335 14.707,-2.79688 z m -333.3965,705.58598 c 4.3767,1.6736 8.8729,3.1717 13.4668,4.5136 -3.8987,-1.9515 -8.409,-3.5308 -13.4668,-4.5136 z M 1096.834,806.56055 c 45.1402,53.6935 -38.1492,28.40564 0,0 z m 133.707,2.88476 c 29.1504,28.89698 -48.7764,38.26466 0,0 z m -449.64452,17.2461 c 5.28303,3.69798 -5.28298,3.69798 0,0 z m -574.04101,6.07226 c 3.46625,-0.0899 6.54092,0.31229 9.08398,1.28516 96.8199,-11.02284 158.02133,93.13736 163.08985,176.10157 1.66545,96.7683 -92.92042,183.676 -43.01563,282.25 41.76096,90.7472 171.67526,86.8159 234.125,20.3184 71.54,-31.8266 75.87924,-192.6923 162.98828,-151.8809 7.18455,121.6101 -25.45378,245.5416 -88.45703,349.1133 -61.0221,-4.0952 -126.19086,51.6311 -195.16406,41.0195 -55.90148,55.6685 -86.7988,-30.5616 -144.17774,-47.0352 -46.87504,-34.6275 -73.11016,-74.5815 -108.85156,-91.3222 7.40232,-56.5071 -38.0316,-58.6911 -31.0332,-122.9668 23.09546,-19.1416 -30.86005,-84.4734 23.71094,-109.8496 -17.89722,-64.4408 85.51365,-93.1847 95.33984,-164.7949 58.06069,-88.12571 -67.45628,-176.84721 -135.76367,-104.04302 -78.27464,-7.60527 17.22327,-77.13402 58.125,-78.19531 z m 442.80078,9.78711 c 46.06417,27.54831 -29.88427,24.26968 0,0 z m 787.96285,31.04102 c 17.1205,74.62837 -14.0184,166.9936 -93.3711,191.9766 -35.8369,11.3849 -163.2829,72.5571 -146.0371,18.9257 92.9043,-52.2899 185.1257,-117.14654 239.4082,-210.9023 z m -989.24801,20.45508 c 31.96252,105.72455 134.94481,159.61282 228.75586,201.74222 45.43983,9.8668 68.41764,57.7127 4.85547,35.0898 -82.32677,-11.8638 -188.03474,-37.1822 -214.83008,-127.5039 4.91834,-38.41177 -19.72533,-73.15292 -18.78125,-109.32812 z m 1050.51761,14.08593 c -5.0463,81.37312 40.9412,152.86789 76.8554,223.44139 38.9048,97.4176 -81.3248,197.5425 -168.8164,136.9629 -54.5968,-31.5456 -136.0256,-102.7753 -129.8945,-158.3496 74.9604,-17.5733 152.1979,-53.9138 178.957,-131.8418 7.1542,-33.7502 -2.8805,-62.38843 42.8985,-70.21289 z m -489.5957,2.57422 c -6.5091,27.33004 -17.62051,62.30661 8.9785,14.00391 l -3.002,-9.33008 z m -160.5723,9.41602 c -20.67866,30.68 39.06109,54.42641 2.9375,14.52539 -1.12845,-4.4436 4.61804,-14.08739 -2.9375,-14.52539 z m -449.63086,32.88672 c 75.54959,18.12522 40.11362,133.00213 128.88282,153.91993 41.96027,39.4401 183.56234,15.1884 100.91601,97.4258 -44.47876,74.9779 -128.45535,166.8985 -224.97265,127.9082 -85.83073,-41.244 -69.2556,-155.2811 -25.75,-221.8067 28.24214,-48.2292 18.14542,-108.2152 20.92382,-157.44723 z m 556.57813,97.06253 c -48.19588,-0.2575 -155.86971,34.1378 -140.29688,61.2187 76.60691,-59.8986 182.05976,-61.84 268.02151,-21.9023 22.4208,-18.7246 -98.24298,-41.6255 -118.93166,-38.791 -2.63023,-0.3377 -5.57991,-0.5083 -8.79297,-0.5254 z m 332.55863,766.3398 c 63.779,46.9463 -32.3899,35.1217 0,0 z"
       style="fill:#000000;stroke-width:1.46142387" />
  </g>
</svg>
