<?xml version="1.0" encoding="UTF-8" standalone="no"?>
<svg
   xmlns:dc="http://purl.org/dc/elements/1.1/"
   xmlns:cc="http://creativecommons.org/ns#"
   xmlns:rdf="http://www.w3.org/1999/02/22-rdf-syntax-ns#"
   xmlns:svg="http://www.w3.org/2000/svg"
   xmlns="http://www.w3.org/2000/svg"
   width="1935.1182"
   height="1935.1182"
   viewBox="0 0 512 512"
   version="1.1"
   id="svg8">
  <defs
     id="defs2" />
  <metadata
     id="metadata5">
    <rdf:RDF>
      <cc:Work
         rdf:about="">
        <dc:format>image/svg+xml</dc:format>
        <dc:type
           rdf:resource="http://purl.org/dc/dcmitype/StillImage" />
        <dc:title></dc:title>
      </cc:Work>
    </rdf:RDF>
  </metadata>
  <g
     id="layer1"
     transform="translate(0,215)">
    <g
       transform="matrix(1.1389494,0,0,1.0508984,895.12275,20.33625)"
       id="g1029">
      <g
         transform="translate(5.3876398,-13.137867)"
         id="g5506">
        <path
           id="path5520"
           d="m -655.79832,275.86541 c -9.75697,-3.27926 -18.50507,-16.83539 -22.24131,-34.46529 -1.96957,-9.29361 -2.12413,-39.09001 -0.25186,-48.55657 l 1.21736,-6.15533 h -9.8274 c -5.40506,0 -15.38974,-1.17143 -22.18818,-2.60319 -15.75467,-3.31792 -20.7807,-2.44632 -27.64918,4.7949 -4.88004,5.14486 -5.0739,5.68133 -4.35752,12.0584 0.59851,5.32772 0.2866,7.11587 -1.5462,8.86457 -3.67784,3.50899 -8.58417,2.70773 -12.35587,-2.01794 -4.2642,-5.34276 -4.54161,-15.45939 -0.67221,-24.51636 3.78145,-8.85109 15.89625,-20.19123 29.86689,-27.95708 l 11.96354,-6.65019 -5.15635,-2.87217 c -8.00324,-4.45796 -14.29282,-10.11445 -19.39605,-17.44375 -8.01816,-11.5157 -9.75381,-18.37132 -10.71693,-42.330676 -0.83368,-20.739462 -0.96204,-21.482256 -4.5751,-26.47628 -6.97012,-9.634221 -16.02604,-11.035885 -25.68895,-3.976086 -5.49487,4.014596 -8.3686,3.573026 -9.56925,-1.470366 -1.12238,-4.714608 2.76738,-11.361552 9.62022,-16.439262 4.49712,-3.332241 7.11538,-4.176872 14.26854,-4.603006 10.8782,-0.648024 18.75988,2.820798 27.66198,12.174421 7.75724,8.150682 10.49086,14.009908 13.91648,29.828585 4.48175,20.695642 11.76534,32.53203 22.86017,37.14956 2.13762,0.88964 9.0091,1.59861 15.27,1.57544 9.90088,-0.0367 12.43547,-0.57171 19.46162,-4.10852 4.443,-2.23652 10.99148,-6.82215 14.55213,-10.190268 l 6.47395,-6.123838 -9.71755,-5.15549 c -14.97325,-7.9438 -24.27757,-15.08844 -36.48664,-28.017511 -7.99114,-8.462418 -12.26576,-14.274872 -14.92057,-20.288416 -2.75826,-6.247876 -4.40128,-8.431813 -6.35132,-8.442379 -3.95819,-0.02142 -8.21273,-3.738907 -10.29651,-8.99675 -1.24743,-3.147504 -2.72356,-4.696005 -4.47655,-4.696005 -1.4385,0 -3.23711,-1.224618 -3.99692,-2.721371 -2.92018,-5.7525058 -6.45427,-28.352391 -6.47415,-41.400877 -0.019,-12.543561 0.17461,-13.524292 3.22329,-16.318929 2.02612,-1.857299 3.24359,-4.420996 3.24359,-6.830217 0,-4.392175 3.65661,-8.870482 8.23126,-10.080955 2.74895,-0.727385 3.20567,-1.832323 3.95822,-9.576403 2.08324,-21.437152 13.98466,-51.988441 27.68106,-71.058091 26.14549,-36.4027 61.00108,-59.44605 101.39619,-67.03393 14.08426,-2.64563 40.825,-2.61155 55.45008,0.0706 39.46525,7.23777 75.40155,30.97444 100.37863,66.30218 14.08914,19.92779 25.90665,50.04179 28.0509,71.480802 0.8314,8.312649 0.97868,8.580952 6.17674,11.251423 4.35832,2.239055 5.49771,3.647783 6.27605,7.759691 0.52306,2.76318 2.42912,6.582287 4.23567,8.486877 2.95664,3.117112 3.28298,4.527797 3.26763,14.125957 -0.0165,10.289403 -3.4043,31.2265487 -6.32718,39.102461 -0.77933,2.099959 -3.13887,4.859985 -5.24344,6.133384 -2.14514,1.29795 -4.65479,4.538348 -5.71154,7.374569 -1.5493,4.158188 -2.82381,5.325799 -7.15579,6.55558 -4.64726,1.319293 -5.77636,2.502194 -9.54513,10.000075 -5.00397,9.955233 -18.43053,25.375774 -29.55388,33.942904 -4.31273,3.321648 -13.02637,8.866621 -19.36367,12.322161 l -11.52236,6.28283 8.57617,8.538786 c 10.9196,10.87199 14.71364,12.95389 23.58667,12.94273 8.86525,-0.0112 20.6937,-5.98992 27.45089,-13.8752 2.5245,-2.945958 7.74414,-11.735276 11.59916,-19.531806 7.77163,-15.717649 18.0239,-28.59046 26.32682,-33.056153 11.48875,-6.179199 27.74658,-4.415101 37.28395,4.045561 10.01066,8.880542 5.57889,19.912249 -5.3527,13.32408 -6.85061,-4.128688 -15.5384,-1.905269 -22.23813,5.691242 -4.85402,5.503777 -8.02251,12.76604 -12.563,28.794666 -2.17622,7.68248 -5.12039,16.74143 -6.54258,20.13098 -5.08677,12.12358 -20.08057,25.90011 -34.38094,31.58976 -5.79978,2.30755 -6.11687,2.66122 -3.91079,4.36188 3.58962,2.76725 18.25364,7.23285 23.751,7.23285 13.39731,0 29.40407,-12.10848 33.31992,-25.20519 2.83955,-9.49691 1.63471,-18.46859 -3.28174,-24.43715 -6.42189,-7.79613 -7.2416,-10.46386 -4.20042,-13.67011 3.10697,-3.275538 9.97175,-3.473228 15.43755,-0.44453 5.76105,3.19231 14.25191,13.28239 17.39365,20.66966 4.00151,9.40882 4.8923,29.82483 1.79725,41.19002 -2.8584,10.49619 -9.57775,23.12857 -15.82037,29.74227 -19.32349,20.47221 -49.67599,29.82349 -74.57035,22.97436 l -8.61116,-2.36918 -0.80347,7.20725 c -0.96597,8.66486 -5.08536,20.7463 -8.74732,25.65441 -8.42831,11.29632 -29.96032,12.22575 -41.94535,1.81056 -7.68568,-6.67899 -8.99525,-10.71659 -8.75348,-26.98843 0.25143,-16.92403 -1.20625,-21.18809 -13.63096,-39.87419 -4.30844,-6.47965 -9.49237,-14.78936 -11.51984,-18.46599 -5.81976,-10.55361 -15.76334,-20.25755 -23.55277,-22.9852 -3.70031,-1.29574 -8.13894,-2.15918 -9.8636,-1.91877 -2.07631,0.28941 -10.30975,8.29399 -24.36923,23.6918 -23.99132,26.27505 -30.52762,36.98193 -33.58407,55.01297 -1.55197,9.15559 -1.46748,10.10067 1.79297,20.05456 4.23385,12.92564 4.37052,20.38859 0.49581,27.07431 -7.247,12.5045 -21.79408,17.77638 -35.93617,13.02331 z m 18.7517,-8.95227 c 8.06302,-2.76404 8.14111,-3.16235 2.81702,-14.3678 -6.43759,-13.54913 -8.29734,-24.06541 -6.28845,-35.55961 1.69053,-9.6728 7.77068,-26.22836 11.85154,-32.27041 1.45648,-2.15645 2.64815,-4.38744 2.64815,-4.95775 0,-0.57034 1.66975,-3.86074 3.71055,-7.31204 2.04079,-3.45129 7.10244,-12.4304 11.24807,-19.9536 4.14563,-7.52319 12.06246,-21.68044 17.59296,-31.46058 13.26538,-23.458538 25.22981,-46.299395 28.07765,-53.601934 2.5931,-6.649405 3.65991,-7.255154 4.99093,-2.833904 1.51484,5.03188 8.5236,20.521562 11.61024,25.659182 2.76222,4.59759 32.32701,56.367656 34.99831,61.284546 0.71358,1.31345 4.64489,8.28349 8.73626,15.48893 16.55974,29.16412 19.73154,41.2094 16.05127,60.95664 -2.85761,15.33311 -2.36496,15.96581 12.95591,16.63861 9.35795,0.41094 11.46263,0.0961 13.71537,-2.05177 6.9438,-6.62049 11.12403,-24.98727 9.5919,-42.14436 -2.1699,-24.29935 -8.93599,-44.18241 -31.20714,-91.70661 -14.12634,-30.144016 -20.50298,-46.883078 -22.25159,-58.411724 l -0.8098,-5.339092 3.74482,1.098762 c 6.13915,1.801236 14.09218,1.199812 17.77493,-1.344152 6.33314,-4.374822 9.02015,-12.319011 10.04619,-29.701613 0.70871,-12.0071953 1.77347,-18.1583963 4.49858,-25.989172 2.53701,-7.29019 3.7521,-13.82134 4.199,-22.569547 1.22588,-23.996558 -4.9561,-37.504318 -28.88151,-63.106798 -13.76937,-14.734524 -20.69535,-19.382524 -36.97709,-24.815204 -11.65834,-3.89 -16.29119,-4.55823 -31.52573,-4.54718 -36.35705,0.0263 -68.51898,19.78633 -85.16714,52.325917 -7.35043,14.366734 -9.62169,24.867622 -8.83036,40.826246 0.49588,10.00025 1.57891,15.656853 4.69893,24.5421067 3.22939,9.19669603 4.05455,13.669803 4.05455,21.9793263 0,12.742179 2.94079,23.815056 7.64099,28.770317 4.1681,4.394303 12.15722,6.198388 18.83735,4.253824 5.35308,-1.55827 5.24577,-1.95316 2.79917,10.302165 -3.46954,17.379395 -12.7294,42.0468 -27.37612,72.927518 -20.68404,43.60965 -25.25535,59.36057 -25.25535,87.01994 0,9.41004 0.82362,19.53051 2.05329,25.23033 2.26719,10.50899 8.37681,21.42308 13.51601,24.14467 3.36882,1.78404 15.58814,2.14607 20.11034,0.59582 z m 3.50311,-228.910366 c -8.81534,-14.836989 23.58568,-3.758443 13.25751,0.81115 -3.49223,1.412827 -11.61969,0.915555 -13.25751,-0.81115 z m 128.51159,0.735515 c -235.74982,232.538531 -117.87491,116.269271 0,0 z m 117.09411,154.020931 c 14.00142,-5.46753 27.61111,-16.62925 31.27367,-25.64848 3.2276,-7.94806 5.93032,-26.13411 5.04743,-33.96308 -0.97547,-8.64998 -7.38486,-20.40219 -13.48338,-24.72309 -6.72349,-4.76366 -9.22876,-4.01513 -4.4246,1.32201 9.39484,10.43708 11.3523,24.72828 5.14596,37.57017 -7.48452,15.48669 -19.74777,23.73577 -36.7559,24.72449 -18.51829,1.07652 -32.64626,-5.24568 -51.12134,-22.87658 l -9.21996,-8.79868 2.17164,5.37905 c 1.19442,2.95846 3.69021,9.68778 5.54621,14.95402 5.47494,15.53472 17.14813,30.21519 26.46137,33.27843 8.13632,2.67613 9.53133,2.8342 20.54598,2.32822 7.1649,-0.32911 13.75535,-1.5715 18.81292,-3.54648 z m -334.73995,-24.64196 c 4.28156,-0.66434 12.78736,-1.22025 18.90178,-1.23537 16.48423,-0.0407 22.34533,-2.3596 31.93574,-12.63461 7.62891,-8.1735 20.35871,-29.79631 17.54172,-29.79631 -0.69262,0 -4.97727,2.68393 -9.52148,5.96426 -10.2627,7.4084 -20.51989,12.90496 -36.27477,19.43869 -15.29818,6.34435 -30.6726,14.40754 -34.90868,18.30803 l -3.24361,2.98663 3.89234,-0.91174 c 2.14075,-0.50143 7.3954,-1.45525 11.67696,-2.11958 z m 299.25613,-31.85857 c 15.60127,-8.32187 24.59948,-21.97236 27.67038,-41.976526 3.18802,-20.767135 19.59665,-38.029364 36.35714,-38.248486 l 6.48723,-0.08476 -3.66577,-2.094717 c -5.0901,-2.908622 -16.41142,-2.651337 -23.1839,0.526892 -8.63127,4.050511 -15.30719,12.934754 -24.28643,32.320081 -9.3975,20.288286 -14.87086,26.930066 -27.66462,33.570216 -7.36602,3.82307 -9.59015,4.35875 -16.12104,3.88274 -4.16687,-0.3037 -8.66579,-1.07002 -9.99759,-1.7029 -2.1993,-1.04515 -2.27241,-0.8571 -0.79688,2.0496 0.89355,1.76019 4.30894,6.22584 7.58978,9.92367 l 5.96519,6.72336 7.28137,-0.55529 c 4.50582,-0.34361 9.98162,-1.9956 14.36514,-4.33383 z m -265.57455,-6.45421 c 9.78141,-4.84732 9.72945,-6.25748 -0.25907,-7.03084 -10.94043,-0.84705 -24.16255,-6.90254 -29.44036,-13.48315 -5.87376,-7.32359 -9.69917,-17.595596 -11.20996,-30.100906 -1.95521,-16.184092 -3.35512,-20.005927 -10.14712,-27.701666 -9.36384,-10.60983 -22.30702,-15.614512 -30.63041,-11.843722 -2.40546,1.089768 -2.35812,1.19831 0.64873,1.487185 1.78398,0.171404 4.11937,0.23831 5.18976,0.148703 4.90282,-0.410446 10.71238,3.134397 15.97582,9.747994 7.40165,9.300343 8.35729,12.469111 9.14863,30.335586 0.77454,17.487078 1.97749,22.074706 8.4209,32.114106 10.48117,16.33058 28.36633,23.23327 42.30308,16.32671 z m 219.31954,-50.574655 c 13.84807,-7.065334 26.2026,-16.977692 34.70448,-27.844275 6.05188,-7.735141 7.62404,-11.070335 11.80212,-25.037024 6.71359,-22.4425203 9.09717,-37.607013 9.19781,-58.516533 0.0722,-15.004 -0.39045,-19.384811 -2.96136,-28.040962 -3.90476,-13.147094 -10.31555,-25.213367 -17.07829,-32.144517 l -5.33847,-5.471393 2.63085,6.497948 c 5.49988,13.584247 11.66363,36.882937 13.09037,49.481003 2.36055,20.843253 -0.44967,38.9020227 -11.33761,72.856821 -3.30151,10.295977 -19.37818,25.371035 -36.94326,34.641624 -7.10717,3.751057 -14.03697,6.820104 -15.39956,6.820104 -1.36258,0 -2.47743,0.9233 -2.47743,2.051775 0,3.01658 1.74802,2.60177 13.4974,-3.20298 14.64141,-7.233529 23.90111,-13.715016 32.41055,-22.686244 6.7184,-7.082979 9.62365,-8.807462 11.50196,-6.827224 1.23978,1.307079 -15.28207,17.831345 -25.08734,25.09101 -5.01668,3.714262 -13.61172,8.712744 -19.1001,11.10774 -11.55149,5.040766 -11.15365,4.772576 -9.99958,6.741236 1.14566,1.95434 4.19332,0.95851 16.88746,-5.518109 z m -168.02011,4.527569 c -7.7e-4,-0.56423 -4.48857,-3.15288 -9.97284,-5.752546 -13.92747,-6.601914 -26.94677,-15.937931 -36.08491,-25.876211 -8.79626,-9.566424 -9.66453,-11.11659 -6.22665,-11.11659 1.33263,0 5.61418,3.425042 9.51456,7.611228 7.86497,8.441261 20.73759,17.447419 33.99781,23.786193 9.78446,4.67723 11.36833,4.992574 11.36833,2.26322 0,-1.04692 -1.5961,-2.325828 -3.54689,-2.842009 -7.18317,-1.900691 -23.25375,-10.605212 -30.20047,-16.357879 -15.45498,-12.798452 -18.10547,-16.56038 -23.43999,-33.269236 -8.19471,-25.6677223 -9.38497,-33.398831 -8.65361,-56.208802 0.70536,-21.999634 3.29513,-33.994874 12.00676,-55.612535 l 4.40982,-10.942807 -4.97845,5.810457 c -12.90255,15.058899 -20.49354,35.3881 -21.77283,58.30929 -0.55267,9.901952 -0.005,16.435709 2.6542,31.6298487 4.09939,23.4284153 10.18844,44.7487803 14.77278,51.7257703 7.29596,11.103855 26.45725,26.768427 42.18903,34.490008 6.58332,3.23126 13.96628,4.47517 13.96335,2.3526 z m -75.31331,-66.539857 c -3.42558,-10.9470748 -6.59338,-33.392403 -7.53636,-53.398663 -0.79437,-16.852781 -0.94156,-17.577798 -3.10441,-15.290627 -3.861,4.082859 -2.65129,24.889413 3.07073,52.8160967 4.49197,21.9234513 4.92145,23.2534833 7.50888,23.2534833 2.28827,0 2.2904,-0.256286 0.061,-7.38029 z m 303.45994,4.986546 c 1.82262,-3.684244 6.38062,-25.4436113 8.59395,-41.026546 2.31169,-16.275736 2.55249,-28.147827 0.64701,-31.901466 -2.67391,-5.267397 -3.84667,-2.500903 -3.84667,9.074116 0,13.866102 -3.07291,37.5672117 -7.03739,54.278942 -2.14039,9.02246 -2.43337,11.968698 -1.19021,11.968698 0.90699,0 2.182,-1.077191 2.83331,-2.393744 z m 15.08131,-31.0732423 c 1.09447,-6.6167527 1.91068,-15.7969077 1.81378,-20.4003657 l -0.17618,-8.369897 -0.99491,9.574966 c -0.86874,8.360649 -5.21473,32.7623567 -7.10892,39.915023 -0.36244,1.368609 0.49645,-0.02662 1.90865,-3.1004518 1.4122,-3.073851 3.46309,-11.0025375 4.55758,-17.6192745 z m -332.0614,9.924613 c -1.07654,-4.89393 -2.52231,-13.1402207 -3.2128,-18.3250637 l -1.25541,-9.426995 0.53497,11.626743 c 0.48911,10.6303337 3.90073,27.12128 5.30464,25.641201 0.3223,-0.339801 -0.29482,-4.6219408 -1.3714,-9.5158853 z m 38.34208,-36.6431007 c 2.61866,-19.234337 10.4613,-41.772417 19.27701,-55.397988 3.13052,-4.838554 3.4614,-8.891032 0.72591,-8.891032 -3.16684,0 -6.65898,4.639712 -11.53272,15.322562 -6.39432,14.015807 -9.7746,30.058588 -10.46149,49.650397 -0.59267,16.904705 -0.39401,16.836467 1.99129,-0.683939 z m 245.362,-10.371227 c 1.79013,-10.530068 -1.68428,-28.814669 -9.98251,-52.534352 -1.18137,-3.376834 -1.84439,-7.739894 -1.47337,-9.695664 0.76422,-4.02846 -3.12761,-7.63616 -21.88184,-20.28435 -14.07526,-9.49261 -50.82259,-24.28722 -53.44865,-21.51864 -1.93182,2.03665 4.09734,9.20001 29.36613,34.89055 29.09596,29.581574 38.23752,41.519479 48.0852,62.794088 3.21116,6.937297 6.42021,12.40947 7.13124,12.160356 0.71102,-0.249089 1.70271,-2.864496 2.2038,-5.811988 z m 25.03251,-49.346461 c -8.82606,-27.824455 -29.14906,-56.958645 -52.88682,-75.816255 -12.7224,-10.10688 -35.32343,-21.85377 -50.89387,-26.45214 -31.81694,-9.39638 -69.59301,-6.91494 -99.25428,6.51983 -35.3114,15.99394 -62.37154,43.21274 -79.0868,79.55048 -8.60428,18.705098 -11.89994,29.846143 -4.73681,16.012872 7.92449,-15.303582 16.84253,-26.412622 31.87673,-39.708282 65.21912,-57.67722 169.83422,-54.05118 228.41511,7.91706 12.30775,13.01941 23.38527,29.45976 26.8743,39.884623 1.26608,3.782925 2.4804,5.964643 2.69848,4.84826 0.21808,-1.116376 -1.13463,-6.856774 -3.00604,-12.756448 z m -254.93264,-25.387905 c 11.52893,-10.22228 22.91096,-18.10604 34.15492,-23.65736 49.92676,-24.64971 105.47992,-24.13092 154.21555,1.44012 17.55218,9.20944 26.24906,16.0857 46.38187,36.6722 11.98665,12.256771 12.67258,11.450991 2.39364,-2.81192 -29.81116,-41.36564 -85.78742,-65.35431 -141.3358,-60.56961 -51.4136,4.42854 -98.09215,32.6421 -121.04581,73.162771 -1.2785,2.256951 1.97898,-0.59044 7.23886,-6.327541 5.25988,-5.73712 13.35842,-13.79599 17.99677,-17.90866 z m 36.67898,4.84055 c 9.70116,-6.79931 30.40172,-16.85241 34.7012,-16.85241 2.642,0 7.76376,-4.4586 7.76376,-6.75853 0,-7.35768 -19.16414,-0.73156 -36.32837,12.56074 -11.52933,8.92856 -19.37657,17.45126 -16.06813,17.45126 0.43921,0 4.90842,-2.88047 9.93154,-6.40106 z"
           style="fill:#cfcfcf;stroke-width:1.33218157" />
        <path
           id="path5514"
           d="m -653.52907,277.30969 c -19.53596,-5.01411 -29.22677,-28.28681 -27.37665,-65.7457 0.46449,-9.40397 1.17109,-18.97724 1.57023,-21.2739 l 0.72571,-4.17573 -8.50156,0.5707 c -5.46457,0.36685 -13.90317,-0.50601 -23.62252,-2.44342 -14.37771,-2.86596 -15.39719,-2.9029 -20.74013,-0.7517 -3.09053,1.24435 -7.46091,4.47394 -9.71195,7.17683 -3.73765,4.48798 -4.02187,5.47807 -3.27546,11.41013 0.62531,4.96967 0.33163,7.00775 -1.25011,8.67532 -2.46104,2.59461 -3.34093,2.66668 -7.597,0.62225 -7.47931,-3.59273 -9.07571,-16.73847 -3.44561,-28.37329 3.75042,-7.75037 16.79442,-19.50953 28.8995,-26.05289 5.81557,-3.14357 11.07835,-6.04437 11.69506,-6.44622 0.61674,-0.40182 -2.26267,-2.87246 -6.39862,-5.49032 -8.97083,-5.67803 -13.60116,-10.10251 -18.73029,-17.89757 -6.60445,-10.03721 -7.90663,-15.76816 -8.78693,-38.671726 -0.73413,-19.101031 -1.12264,-21.740657 -3.8963,-26.472058 -6.23997,-10.644428 -17.44222,-13.565272 -26.67968,-6.956388 -6.16458,4.410433 -8.9895,3.93505 -9.50212,-1.599004 -0.52639,-5.68278 4.79593,-12.25216 13.31443,-16.434175 10.11943,-4.967927 18.33484,-3.987109 29.5802,3.531507 9.5686,6.397536 17.23808,18.506989 19.77489,31.222859 4.37037,21.906649 10.29662,33.694005 19.94723,39.675195 5.5024,3.41021 7.13703,3.72007 19.62546,3.72007 12.8793,0 14.0482,-0.24116 21.4078,-4.41675 7.40525,-4.20151 21.42905,-16.096276 20.09179,-17.041556 -0.34661,-0.24499 -5.30096,-2.81378 -11.00971,-5.70843 -5.70874,-2.89466 -13.91878,-7.91722 -18.24455,-11.161265 -11.00732,-8.254807 -28.19271,-27.810826 -32.39263,-36.861037 -3.00419,-6.473523 -4.20621,-7.744283 -8.47058,-8.954874 -4.01256,-1.139104 -5.29119,-2.348463 -6.63965,-6.279902 -1.13983,-3.323262 -2.9731,-5.443103 -5.7744,-6.67707 -3.82046,-1.682923 -4.30487,-2.692109 -7.00377,-14.5907893 -1.97766,-8.718945 -2.94932,-17.4895407 -3.05633,-27.5877727 -0.14131,-13.333967 0.10098,-15.003648 2.43798,-16.804601 1.42719,-1.099809 3.19386,-4.593875 3.92595,-7.764595 1.08144,-4.683771 2.23768,-6.235215 6.16524,-8.272535 2.85531,-1.48111 5.05547,-3.720816 5.37484,-5.471405 0.29736,-1.630098 1.24583,-7.580304 2.10769,-13.22269 4.51543,-29.561328 20.65115,-60.738638 43.75925,-84.551318 29.27588,-30.16847 70.39151,-48.08847 110.41153,-48.12222 21.12921,-0.0178 52.51623,7.6278 70.22836,17.107 10.52556,5.63309 29.02355,19.25598 37.95681,27.95338 10.48622,10.20933 25.78246,31.28567 32.31479,44.52582 6.46018,13.09385 13.88133,36.674375 14.88657,47.301601 0.94413,9.981191 2.29723,13.567804 5.11865,13.567804 3.17478,0 8.32874,6.399672 8.32874,10.341818 0,2.239489 1.24079,4.655866 3.24361,6.31678 3.02913,2.512019 3.24359,3.501151 3.24359,14.958933 0,21.8085727 -5.28298,42.189942 -11.65745,44.973629 -2.24862,0.981953 -4.02376,3.028109 -4.55197,5.246968 -1.24357,5.223634 -2.92428,6.883398 -7.9835,7.884023 -3.81725,0.754985 -5.01802,2.009579 -8.21687,8.585265 -8.90018,18.295548 -26.83292,35.376644 -50.43438,48.039233 l -10.83615,5.81378 8.24127,8.879376 c 14.14839,15.24383 23.53711,17.49796 39.432,9.46715 11.13118,-5.62396 15.14396,-10.32115 24.09416,-28.203666 13.92607,-27.824256 24.32452,-37.005536 41.84705,-36.948689 10.90516,0.03542 18.06379,2.94545 23.25946,9.455233 3.94481,4.94254 4.45155,8.509609 1.56742,11.033125 -1.57851,1.381144 -3.15365,1.156154 -8.32468,-1.189075 -10.43752,-4.733784 -19.71858,-0.905277 -26.90655,11.099132 -3.39927,5.677004 -4.49129,8.747764 -9.60917,27.0213 -6.24164,22.28588 -16.24256,35.77888 -32.89197,44.37711 -5.05752,2.61186 -10.36321,5.12683 -11.79039,5.58882 -2.56146,0.82913 -2.56247,0.86512 -0.0775,2.79309 9.89451,7.67709 28.13228,9.94905 39.00087,4.85846 13.48335,-6.31524 21.32921,-18.08084 21.37929,-32.06019 0.0311,-8.66512 -1.02927,-11.60312 -6.64899,-18.42366 -4.25498,-5.16419 -4.57629,-7.38439 -1.53303,-10.5928 4.89836,-5.164178 20.05162,2.17265 26.84718,12.99872 5.47081,8.71557 7.55036,17.38921 7.55136,31.49598 7.2e-4,10.28782 -0.64314,14.85091 -3.09107,21.90626 -4.15731,11.98202 -11.78345,23.75874 -19.60744,30.27892 -8.07868,6.73237 -25.32785,15.49159 -34.36762,17.45205 -9.77463,2.11983 -27.2857,1.84483 -34.76086,-0.5459 -9.17635,-2.93479 -9.61268,-2.78679 -9.61268,3.26073 0,9.39428 -4.97119,23.48898 -10.24586,29.0499 -8.75439,9.22947 -23.25352,10.25503 -36.0502,2.54992 -9.89761,-5.95952 -12.28051,-12.04369 -11.86114,-30.2845 0.28641,-12.45852 -0.0276,-14.87485 -2.60601,-20.04891 -6.01837,-12.07736 -31.58082,-50.92501 -35.67696,-54.21884 -6.14898,-4.94457 -12.94718,-7.60672 -19.42487,-7.60672 -5.46442,0 -5.97156,0.3775 -14.26482,10.61802 -4.72944,5.83992 -12.71649,14.50462 -17.74902,19.25485 -22.66872,21.39723 -33.4571,50.193 -26.10908,69.68898 3.18779,8.45792 3.58438,20.5621 0.85598,26.12458 -2.70398,5.5127 -10.6041,11.36257 -18.1211,13.41826 -7.13169,1.95033 -7.41938,1.96143 -13.09397,0.50499 z m 12.11898,-8.37697 c 3.52453,-0.7969 7.41525,-2.22524 8.64612,-3.17409 2.08041,-1.60381 1.95688,-2.29585 -1.75563,-9.83588 -6.10088,-12.39076 -7.99671,-19.29292 -7.81671,-28.45848 l 0.16452,-8.37708 1.0459,8.2071 c 1.26872,9.95543 4.02401,18.36723 8.72213,26.62827 3.26464,5.74047 3.55445,5.94375 3.90885,2.7418 0.21054,-1.90211 -0.546,-7.13415 -1.68118,-11.62673 -3.63556,-14.38802 -3.83024,-24.66287 -0.70916,-37.43089 3.47848,-14.23028 7.40881,-22.4997 20.22319,-42.5497 23.85458,-37.32403 32.42971,-54.72243 40.04108,-81.240706 2.56807,-8.947248 4.66921,-17.103067 4.66921,-18.124028 0,-5.332666 2.55697,-0.165361 7.03459,14.215978 6.35006,20.395266 12.11178,33.177846 25.74714,57.120746 18.39172,32.2948 22.94396,40.63925 27.89853,51.1392 4.67139,9.89987 4.78828,10.53494 5.45582,29.63726 0.37519,10.7363 1.08034,19.94016 1.56698,20.45298 1.25905,1.32676 4.92891,-12.44699 5.08301,-19.07759 0.0711,-3.06081 0.59677,-7.10393 1.1681,-8.98473 1.92685,-6.34309 1.37058,13.86581 -0.62125,22.56954 -1.78768,7.81167 -1.75382,8.31792 0.70262,10.50685 3.01723,2.68869 14.84086,4.5357 21.72133,3.39322 6.43275,-1.06813 11.14486,-7.17388 13.94092,-18.06395 2.93371,-11.4261 2.08094,-35.07259 -1.83211,-50.80305 -3.67915,-14.7902 -14.4656,-41.56818 -27.82607,-69.07991 -11.53322,-23.749046 -17.9777,-40.181325 -20.78782,-53.005335 l -1.72975,-7.893638 8.54043,0.571666 c 10.69733,0.716042 15.25644,-1.939491 19.5962,-11.414147 16.30606,-52.14624 5.66856,-124.099285 -38.36053,-151.290136 -15.6405,-8.55195 -27.10665,-11.28454 -47.29814,-11.27196 -20.22186,0.012 -29.63828,2.40154 -47.35662,12.01445 -14.64802,7.94714 -31.69144,25.981356 -39.37215,41.660967 -10.63868,21.718128 -11.57945,39.58588 -3.41668,64.8924587 3.60248,11.168549 4.43213,15.7846365 4.37895,24.3636913 -0.14535,23.450172 7.77652,33.203227 25.27975,31.1233 l 5.52065,-0.656036 -2.23567,11.088626 c -3.58484,17.780327 -12.05675,40.026345 -27.59456,72.459313 -19.56905,40.84763 -25.33507,60.47022 -25.44093,86.57889 -0.0823,20.27606 5.45375,40.5209 13.06666,47.78439 4.34378,4.14439 12.34225,5.32592 21.71228,3.20737 z M -505.69712,38.622867 c -4.34012,-8.969208 21.07972,-5.069567 10.44547,0.347982 -4.43778,2.131714 -7.38486,2.033529 -10.44547,-0.347982 z m 103.80826,166.800823 c 11.66564,-3.81637 25.83878,-12.06453 31.85079,-18.53581 11.03741,-11.88056 16.82194,-28.07672 16.83488,-47.1361 0.0102,-14.95962 -7.0803,-28.33391 -17.44095,-32.89779 -7.43965,-3.27719 -7.82104,-2.30659 -1.77415,4.51488 9.46796,10.68073 11.26709,24.2713 4.94316,37.33995 -12.30644,25.43173 -42.85023,31.43907 -71.22736,14.00899 -3.15615,-1.9386 -10.66885,-8.51457 -16.69484,-14.61325 -10.58545,-10.71312 -10.87962,-10.90328 -8.68968,-5.61708 9.00197,21.72952 14.0004,38.3562 15.48562,51.51114 l 0.87384,7.73987 6.73306,2.78255 c 3.70319,1.53039 7.90076,3.09494 9.32794,3.47675 4.53283,1.21268 23.11168,-0.39335 29.77769,-2.5741 z m -349.17687,-2.60266 c -1.53874,-9.99679 4.19095,-19.91663 14.39809,-24.92742 7.86525,-3.86115 11.11368,-3.96724 30.59218,-0.99898 13.84991,2.11053 15.4414,2.11264 22.17837,0.0294 7.16241,-2.21481 7.31,-2.36595 11.23014,-11.50115 2.18478,-5.09128 4.39077,-10.74823 4.90219,-12.57106 0.51141,-1.82281 3.82442,-8.90144 7.36223,-15.73029 3.53782,-6.82884 7.82222,-16.2718 9.52087,-20.98434 2.76621,-7.67418 2.84525,-8.43101 0.75737,-7.25297 -3.18313,1.796 -12.21006,12.46542 -11.33078,13.39245 0.39,0.41117 2.23759,-0.3083 4.10576,-1.59878 1.86816,-1.29051 3.69522,-2.03164 4.06009,-1.64696 1.06052,1.11811 -20.14292,17.15156 -28.71528,21.71372 -4.30042,2.28864 -11.32969,5.55855 -15.6206,7.26648 -32.6005,12.97603 -48.19455,23.88938 -54.65194,38.24763 -3.57408,7.94707 -3.92724,13.87824 -1.08145,18.16164 2.73549,4.11744 3.13032,3.84201 2.29276,-1.59934 z m 323.17723,-58.47207 c 9.58044,-3.8652 22.85747,-16.62943 27.24571,-26.19339 1.79896,-3.92077 4.79042,-12.97623 6.64769,-20.123248 1.85726,-7.147018 4.35092,-15.419408 5.54141,-18.383088 3.0855,-7.680998 10.05833,-16.106534 15.60413,-18.854999 5.95809,-2.952794 15.91964,-3.092603 21.36446,-0.299833 l 4.15226,2.129786 -4.54105,-4.16136 c -7.89382,-7.233814 -19.65482,-8.958825 -29.37019,-4.30779 -10.40724,4.982252 -15.31843,11.292695 -25.15697,32.324546 -7.11879,15.217836 -10.47526,20.852336 -14.82791,24.891616 -8.21488,7.62342 -17.92457,12.7482 -25.71148,13.57052 -5.87426,0.62032 -7.82517,0.1316 -14.56726,-3.64917 -7.81034,-4.37983 -12.3257,-6.02937 -12.3257,-4.50285 0,2.95417 19.29021,25.35078 25.30011,29.3743 4.57478,3.06273 9.66336,2.61535 20.64479,-1.81504 z m -270.24108,-3.26617 c 10.5925,-3.8969 21.87133,-10.51765 27.19309,-15.96253 5.38464,-5.50921 6.06137,-7.95121 1.48845,-5.37104 -1.38497,0.78143 -6.25172,2.0451 -10.81503,2.80815 -9.53599,1.59457 -21.97859,-0.52185 -30.72518,-5.22618 -10.99214,-5.91207 -18.75837,-20.079968 -20.41134,-37.236226 -1.796,-18.64085 -8.14743,-29.733537 -21.36857,-37.319888 -8.803,-5.051202 -19.02592,-4.681033 -27.14413,0.982896 -6.65076,4.640095 -6.95604,7.325954 -0.44169,3.885739 7.60149,-4.01433 11.25937,-4.480083 17.36082,-2.210544 13.77017,5.122057 17.92987,14.07325 19.30448,41.541087 0.65304,13.049566 1.77393,22.229576 3.24089,26.542786 4.39536,12.92359 23.1077,29.65436 33.16651,29.65436 1.91097,0 6.02923,-0.93987 9.1517,-2.08861 z m 58.22365,-55.979266 c 0,-1.15189 -4.59983,-4.2585 -10.95237,-7.396954 -6.0238,-2.976047 -14.33223,-7.776032 -18.46319,-10.666649 -13.6404,-9.544807 -27.74038,-25.089509 -22.75769,-25.089509 0.56203,0 3.91915,3.119604 7.46028,6.932449 3.54115,3.812845 10.34393,9.682801 15.11729,13.044352 10.4208,7.338628 30.40851,17.43241 32.20358,16.262762 2.98842,-1.947157 0.84314,-4.616258 -5.45617,-6.788473 -14.45619,-4.984975 -27.28331,-13.452973 -40.32061,-26.618174 -5.66977,-5.725388 -6.63143,-7.694096 -11.40617,-23.350688 -2.8679,-9.403978 -6.13476,-22.6379423 -7.2597,-29.4088063 -3.91415,-23.5591907 -0.10348,-52.1229367 10.48493,-78.5914067 2.53063,-6.325995 4.44322,-11.668294 4.2502,-11.871798 -0.7587,-0.799873 -8.81139,8.084659 -12.62692,13.931297 -17.57871,26.936294 -18.8529,66.598816 -3.73774,116.345959 3.74393,12.322058 4.5491,13.724749 13.63137,23.746941 17.18121,18.95931 49.83291,38.300648 49.83291,29.518698 z m 166.78988,-3.28193 c 13.03559,-6.660013 27.54361,-18.147251 36.32282,-28.75996 5.52887,-6.6835 7.57359,-10.64105 10.82929,-20.959973 5.29223,-16.773661 8.75962,-33.9920233 10.50026,-52.142224 2.25869,-23.55187 -2.13086,-44.770718 -12.82572,-61.999053 -4.97045,-8.006864 -13.11212,-17.178512 -13.10326,-14.760838 0.002,0.704986 1.76165,6.206058 3.90902,12.224605 14.6068,40.939276 15.17525,65.603812 2.46284,106.861809 l -5.10971,16.583627 -8.9246,8.527555 c -4.90852,4.690157 -10.59415,9.724643 -12.63476,11.187753 -5.99572,4.298938 -20.14317,11.640946 -25.98382,13.484631 -3.65663,1.154265 -5.18668,2.311842 -4.72661,3.5759 1.08494,2.980691 4.36335,2.235009 15.79287,-3.59212 14.02495,-7.150374 21.15395,-12.289897 30.8627,-22.249882 4.92709,-5.05462 8.57302,-7.797272 9.53339,-7.171534 2.19398,1.429541 -9.91554,14.143637 -22.24796,23.358689 -5.45931,4.079307 -14.50896,9.478067 -20.11034,11.997229 -6.05664,2.723906 -10.35436,5.496566 -10.60383,6.840996 -0.69662,3.75416 4.86039,2.71344 16.05742,-3.00721 z M -713.16328,23.142455 c -4.42539,-12.061989 -10.55554,-56.934602 -9.44623,-69.146206 0.55045,-6.059555 0.38518,-6.535183 -2.1386,-6.155331 -2.51497,0.378526 -2.76756,1.402649 -3.1378,12.722332 -0.47103,14.401697 1.22907,28.609993 5.81036,48.5587252 3.85142,16.7705438 3.69655,16.4142178 7.13338,16.4142178 2.00019,0 2.43999,-0.591813 1.77889,-2.393738 z m 302.65864,-1.367854 c 3.61647,-9.955959 8.63444,-38.943167 10.03769,-57.984343 0.80505,-10.923991 0.66013,-12.04169 -1.91284,-14.754289 -3.80797,-4.014631 -5.65666,-2.368887 -4.61822,4.111228 1.49228,9.312073 -4.08265,51.4307087 -9.17424,69.311331 -1.36543,4.795113 3.90854,4.158692 5.66761,-0.683927 z M -727.3101,5.5116977 c -2.70818,-11.316495 -4.71419,-26.3692217 -4.71419,-35.3742677 0,-4.774253 -0.4913,-7.363745 -1.29745,-6.838477 -3.48027,2.267652 0.98204,43.8975012 5.29228,49.372872 2.55729,3.248578 2.75039,1.326774 0.71936,-7.1601273 z m 329.4538,-2.545053 c 2.46512,-9.437013 4.2285,-39.8369767 2.23546,-38.5383657 -0.6995,0.455781 -1.64231,5.927925 -2.09514,12.160335 -0.45281,6.232424 -1.73059,15.6403977 -2.83952,20.9066267 -3.81489,18.1169433 -3.80793,18.0435863 -1.49559,15.7302903 1.12802,-1.128477 3.01567,-5.7449758 4.19479,-10.2588863 z M -690.48365,-24.732346 c 0.0482,-16.853805 7.06958,-41.603147 16.96353,-59.794782 6.31868,-11.617869 7.18375,-15.779012 3.28036,-15.779012 -4.84311,0 -13.24572,15.376565 -18.45698,33.775711 -2.70349,9.545101 -3.54977,15.953692 -4.07458,30.855271 -0.47416,13.464047 -0.24646,18.807957 0.80139,18.807957 0.9144,0 1.47223,-2.951878 1.48628,-7.865145 z m 246.24887,-24.150006 c 0.65204,-10.795741 -2.52838,-28.120786 -7.63851,-41.610208 -2.08778,-5.51117 -3.79595,-12.32075 -3.79595,-15.13243 0,-6.2786 -2.64811,-9.11727 -18.7821,-20.13348 -13.30866,-9.08711 -29.65143,-16.87618 -45.69029,-21.77629 -6.08822,-1.86004 -11.29609,-3.38189 -11.57308,-3.38189 -0.27696,0 -0.50358,1.53859 -0.50358,3.4191 0,3.58711 7.40688,11.88423 39.68578,44.45572 18.26252,18.428031 26.62262,29.782733 35.75223,48.558714 3.65808,7.523184 7.2481,14.474016 7.97786,15.446298 2.31163,3.079854 4.00781,-0.576261 4.56764,-9.845534 z m 28.10124,-32.5002 c -3.7446,-23.366888 -20.6233,-54.190718 -41.44651,-75.689438 -18.00745,-18.59161 -43.73552,-33.99837 -68.79975,-41.19938 -11.9352,-3.42901 -14.94893,-3.73343 -37.62582,-3.80061 -22.91619,-0.0678 -25.6055,0.19322 -38.20642,3.70995 -43.86987,12.24345 -79.91159,43.33147 -100.44861,86.64255 -5.43958,11.47167 -12.04226,31.498528 -10.81231,32.795229 0.31408,0.331115 1.89861,-2.846301 3.52116,-7.060952 3.43348,-8.918616 11.03862,-21.688687 18.39199,-30.882597 5.57052,-6.96484 21.39859,-21.39084 30.97277,-28.22918 16.60493,-11.86004 44.62632,-23.2889 66.09156,-26.95629 16.01623,-2.7364 45.26894,-2.72567 60.33104,0.0222 14.3682,2.62119 34.89855,9.71274 47.52277,16.41521 30.65936,16.27768 57.92233,45.28524 67.23438,71.536751 1.63772,4.616886 3.24976,8.394348 3.58227,8.394348 0.33251,0 0.19369,-2.563986 -0.30852,-5.697739 z m -269.77329,-26.611998 c 20.11927,-20.98563 39.91498,-34.02981 66.10745,-43.56083 16.29507,-5.92954 25.89959,-7.62435 48.00912,-8.47172 17.47807,-0.66986 23.23102,-0.34885 36.39922,2.03114 22.063,3.98758 41.10378,11.26139 59.45368,22.71208 12.0035,7.49039 34.86248,28.23596 43.51965,39.496039 3.86842,5.031522 7.29647,8.870958 7.61791,8.532083 0.97448,-1.027351 -5.50904,-11.758888 -13.76334,-22.781182 -20.92178,-27.93762 -53.8788,-48.2292 -92.3577,-56.86452 -15.65637,-3.51355 -53.29162,-3.46348 -68.76442,0.0916 -43.32991,9.95534 -80.91807,36.26005 -101.01802,70.693844 -7.42574,12.721233 -8.88941,17.263513 -2.57269,7.983921 2.2533,-3.310215 10.06942,-12.248265 17.36914,-19.862335 z m 50.26181,-7.81379 c 10.19103,-6.7492 15.80604,-9.42256 34.00564,-16.1905 5.52778,-2.05564 7.1583,-5.34432 4.39196,-8.85842 -1.15315,-1.4649 -2.99607,-1.89276 -5.9648,-1.38485 -12.71137,2.17472 -49.36376,28.715 -46.47081,33.6499 0.48087,0.8203 1.27185,1.23049 1.75773,0.91154 0.48588,-0.31893 6.01201,-3.97638 12.28028,-8.12767 z"
           style="fill:#898989;stroke-width:1.33218157" />
        <path
           id="path5508"
           d="m -658.48552,275.52082 c -9.51185,-4.5541 -15.78045,-14.57359 -19.3934,-30.99782 -2.24773,-10.218 -2.62052,-41.68697 -0.59842,-50.51497 1.96356,-8.57235 1.85076,-8.862 -2.89296,-7.42768 -6.26627,1.89466 -11.41918,1.57583 -25.99443,-1.60836 -7.61743,-1.66416 -15.7816,-2.61778 -19.33206,-2.25809 -11.20748,1.13532 -20.95238,12.49477 -17.92364,20.89322 2.92646,8.11488 -4.92624,12.01398 -11.09592,5.50946 -2.58983,-2.73036 -3.17933,-4.71036 -3.15614,-10.60086 0.0651,-16.56779 11.80505,-30.01421 37.96531,-43.48406 l 8.80134,-4.53179 -7.8905,-4.12313 c -9.16221,-4.78765 -19.81566,-16.19653 -24.55378,-26.2949 -2.77099,-5.90577 -3.27969,-9.39203 -4.08979,-28.028276 -1.01432,-23.333969 -2.2401,-28.215722 -8.82878,-35.161973 -6.82383,-7.194133 -14.90271,-7.555245 -23.96563,-1.07122 -6.02678,4.311825 -7.0541,4.312426 -8.07961,0.0041 -1.1524,-4.840689 3.84546,-12.055298 11.32689,-16.350858 12.42505,-7.133987 27.77975,-3.10728 39.19555,10.278884 7.17231,8.410248 9.61687,13.851166 12.15352,27.050384 6.12511,31.871379 21.5771,44.686869 48.177,39.956729 10.03778,-1.78498 18.01339,-6.39803 28.06396,-16.23208 3.33747,-3.265548 5.87777,-6.054126 5.64514,-6.196856 -0.23266,-0.14272 -4.18625,-2.08739 -8.78581,-4.3215 -10.49574,-5.09804 -22.08816,-12.911835 -30.82407,-20.776749 -8.69387,-7.827079 -20.61728,-23.401327 -23.8933,-31.2092 -1.81321,-4.320877 -3.32763,-6.105582 -5.18151,-6.105582 -4.35071,0 -7.35314,-2.466565 -8.85936,-7.278148 -0.9543,-3.048515 -2.80065,-5.208928 -5.56172,-6.507798 -3.62315,-1.704425 -4.43084,-3.125828 -6.54553,-11.5193078 -1.40285,-5.5680985 -2.71799,-16.8116452 -3.14273,-26.8680492 l -0.73036,-17.293103 3.41076,-2.356097 c 2.51751,-1.739046 3.41079,-3.513216 3.41079,-6.77427 0,-4.757483 2.49487,-7.933237 7.95021,-10.119913 2.96062,-1.186707 3.52246,-2.402766 4.30978,-9.328198 5.78399,-50.876219 38.4454,-98.045399 85.04812,-122.825369 21.64619,-11.50989 37.29413,-15.65798 63.04439,-16.71236 24.02541,-0.98376 35.94617,0.66596 57.11656,7.90441 53.74684,18.37681 96.17705,70.21749 104.43995,127.603347 1.56206,10.848436 2.09629,12.296171 5.01899,13.601033 5.64376,2.51969 7.81192,5.261043 7.81192,9.87705 0,3.16674 0.89109,5.033707 3.146,6.591361 2.44508,1.689009 3.34397,3.843705 4.03457,9.671106 1.87896,15.854807 -4.90669,46.428053 -11.00537,49.585491 -1.74685,0.904397 -4.25729,3.866166 -5.57874,6.58172 -2.42261,4.978446 -2.87461,5.323773 -8.76063,6.693308 -2.40247,0.558999 -4.40239,3.129752 -7.71209,9.913325 -4.82533,9.890017 -17.76533,24.718073 -29.91372,34.278426 -3.92476,3.088637 -12.58093,8.537977 -19.23596,12.109627 l -12.10002,6.49393 8.20769,8.747336 c 10.49889,11.18918 19.6716,16.1575 27.69111,14.99865 6.91598,-0.99939 19.55006,-7.48408 25.73448,-13.20876 2.71416,-2.5124 7.67057,-10.683966 12.65848,-20.869926 10.03646,-20.49581 18.78994,-30.702102 29.56899,-34.47662 15.95947,-5.588549 36.46033,2.434734 36.46033,14.269235 0,4.029813 -3.3584,4.925673 -8.59532,2.292834 -11.33114,-5.696679 -23.22129,0.5889 -30.68301,16.220161 -1.07738,2.25695 -3.80649,10.85325 -6.06469,19.102876 -5.20335,19.00892 -10.47887,29.43571 -18.79418,37.14592 -6.89381,6.39211 -22.72085,15.56339 -26.85806,15.56339 -7.08208,0 3.81482,7.40052 16.04608,10.89753 17.0677,4.87977 35.28852,-4.06809 43.2592,-21.24371 2.96635,-6.39203 3.38616,-8.69363 2.75733,-15.11708 -0.40797,-4.16739 -1.67443,-8.91434 -2.81437,-10.54879 -8.29101,-11.88771 -8.41817,-12.15194 -7.09878,-14.75099 2.80483,-5.525298 15.97822,-1.8721 23.52751,6.52457 8.88617,9.88359 13.42793,31.22446 10.33813,48.57693 -3.44774,19.36274 -17.08928,38.23495 -34.59182,47.85558 -20.81011,11.4387 -40.71792,13.34867 -62.35541,5.98241 -2.46165,-0.83804 -2.79464,-0.0858 -4.20961,9.50946 -3.3575,22.76822 -11.45273,32.16726 -27.7052,32.16726 -6.61915,0 -9.8977,-0.80139 -15.38904,-3.7616 -11.03272,-5.94739 -12.17937,-8.48975 -13.00026,-28.82468 -0.8199,-20.31056 -0.42036,-19.28479 -18.77488,-48.20407 -18.01809,-28.38918 -24.2762,-34.4459 -37.57727,-36.36795 l -5.81152,-0.83977 -20.29108,21.72506 c -27.07298,28.98633 -34.01658,39.99531 -36.99624,58.65709 -1.43413,8.982 -1.3165,10.27819 1.89931,20.93035 1.88545,6.24546 3.42812,13.18998 3.42812,15.43225 0,17.51339 -21.71307,29.89127 -38.41079,21.8967 z m 22.25268,-6.2192 c 6.12387,-2.69758 6.62289,-5.04293 2.66243,-12.51351 -4.56504,-8.61098 -4.22531,-9.58294 0.54829,-1.56872 2.12853,3.57351 4.52711,6.4973 5.3302,6.4973 1.79939,0 0.81892,-9.7866 -2.05119,-20.47391 -2.7377,-10.19423 -2.52139,-22.0854 0.61911,-34.03324 3.47471,-13.21943 8.32521,-23.0742 21.94544,-44.58683 16.32397,-25.7831 25.41899,-42.36966 30.64966,-55.89574 5.05917,-13.082636 10.94672,-32.848359 10.94672,-36.750538 0,-5.688143 2.19566,-1.60129 6.21258,11.563642 5.17929,16.974438 12.77584,34.045006 23.26612,52.282496 10.47546,18.21172 26.45592,47.56778 30.57603,56.16808 4.14475,8.65178 6.00961,19.76239 5.85887,34.90633 -0.0642,6.45645 0.50979,12.91955 1.27573,14.36243 1.31938,2.48551 1.45581,2.44364 2.59499,-0.7962 2.42237,-6.8893 2.82568,-7.42329 2.06621,-2.73571 -0.42659,2.63312 -0.8576,5.31481 -0.9578,5.95931 -0.44682,2.87416 9.52961,6.49082 18.38215,6.66388 10.89573,0.213 14.34748,-1.71792 18.24514,-10.20634 7.02333,-15.29561 7.01945,-37.88415 -0.0102,-63.28623 -3.464,-12.51622 -18.40917,-49.57571 -24.17618,-59.9496 -9.30316,-16.734848 -22.14182,-49.309789 -24.1793,-61.348973 l -0.85145,-5.031218 4.76222,1.386276 c 19.51197,4.33421 63.84004,-11.841626 -2.30631,-18.74922 -141.00138,-16.078304 -205.09072,26.37561 -120.48174,19.227639 3.84189,-0.889608 3.89427,-0.827782 3.08929,3.646391 -2.97285,16.52362 -13.03344,45.856497 -21.31231,62.138695 -22.66259,44.57092 -29.82814,64.77343 -32.45242,91.49628 -2.72842,27.78361 4.44262,55.35391 15.95319,61.33476 5.35664,2.7833 17.79291,2.93617 23.79446,0.29247 z m 143.40983,-41.21128 c 0.0622,-1.59348 0.36968,-1.9176 0.78385,-0.82642 0.37478,0.98742 0.32871,2.1672 -0.10234,2.62173 -0.43113,0.45452 -0.73778,-0.35338 -0.68143,-1.79531 z m 80.0428,-18.36047 c 18.3641,-2.51451 39.78641,-14.31398 48.03335,-26.45688 11.39985,-16.78529 15.90043,-38.83418 11.27704,-55.24764 -2.48862,-8.83489 -11.02934,-18.96387 -18.14485,-21.51911 -6.1977,-2.22567 -7.52242,-0.46303 -2.67388,3.5578 1.87473,1.5547 4.91884,5.96876 6.76468,9.80902 2.90381,6.04136 3.27198,8.22134 2.73206,16.17693 -1.9124,28.17888 -30.63293,44.25281 -59.72751,33.42752 -11.92196,-4.43584 -19.58193,-9.88051 -30.93159,-21.98605 -5.26874,-5.61966 -10.02528,-10.22469 -10.57005,-10.2334 -0.54476,-0.008 -0.0344,2.29239 1.13413,5.11359 9.96247,24.05223 13.64346,36.63743 15.39668,52.64061 0.84931,7.75243 0.92977,7.87669 6.93135,10.70493 10.73916,5.06087 16.47685,5.83402 29.77859,4.01268 z m -336.82889,-8.78024 c -0.42056,-7.11427 -0.20365,-7.69452 5.18977,-13.88232 9.42057,-10.80807 15.13228,-11.95283 40.01089,-8.01907 12.8979,2.03943 14.03667,2.01892 21.39128,-0.38493 l 7.76813,-2.53902 5.59502,-13.62767 c 3.07726,-7.49524 10.29596,-23.67033 16.04157,-35.9447 5.74563,-12.27435 10.14552,-22.63441 9.77756,-23.02233 -1.34976,-1.423 -5.8,2.2961 -12.01618,10.04201 -3.50469,4.36718 -7.69607,9.47916 -9.31416,11.35995 -1.61809,1.88078 -2.67264,4.16052 -2.34347,5.06607 0.75873,2.08731 -11.24624,10.05102 -22.4607,14.8997 -47.6625,20.60741 -59.08294,28.77552 -64.19627,45.91434 -2.08093,6.97485 -2.1121,8.14323 -0.33686,12.62258 3.0227,7.62693 5.41924,6.41011 4.89342,-2.48461 z m 323.87502,-55.5052 c 10.14594,-4.97866 22.07303,-16.76887 26.62191,-26.31634 1.88439,-3.95513 4.9675,-13.34647 6.85134,-20.869648 1.88383,-7.523178 4.56683,-16.045378 5.9622,-18.938191 4.10563,-8.511578 12.69477,-16.629243 19.5091,-18.43824 5.98695,-1.589335 13.42959,-0.930399 14.74005,1.305039 0.38406,0.655147 1.97751,1.168064 3.54098,1.139818 2.48634,-0.04487 2.19215,-0.64036 -2.3471,-4.750467 -16.29376,-14.753276 -40.94042,-5.356986 -52.06214,19.848195 -10.34094,23.435694 -12.72515,27.638984 -19.14406,33.750444 -9.01066,8.57911 -17.75309,12.72634 -26.86262,12.74313 -6.37369,0.012 -8.32438,-0.71684 -16.17292,-6.04073 -4.90877,-3.32974 -9.39657,-5.74684 -9.97289,-5.37133 -3.00637,1.95888 17.71765,28.89199 26.90651,34.96791 4.96176,3.28086 11.31976,2.42208 22.42964,-3.02959 z m -270.76847,-2.61095 c 8.63904,-3.22154 17.84255,-7.97449 20.55136,-10.61326 8.67173,-8.44752 12.95538,-13.48107 11.81403,-13.88219 -0.74018,-0.2601 -4.11955,0.65538 -7.50976,2.03441 -4.21548,1.71473 -9.44502,2.48439 -16.5435,2.43478 -25.23134,-0.17635 -39.21575,-14.27935 -42.27132,-42.629806 -0.69989,-6.493709 -2.36345,-14.406812 -3.69681,-17.584672 -5.65988,-13.489451 -22.13973,-24.865884 -33.89447,-23.398153 -6.49582,0.811082 -16.00391,6.35378 -17.37868,10.1308 -1.20209,3.302568 -0.47056,3.240824 6.84903,-0.57819 6.37196,-3.324578 7.2742,-3.452608 13.67982,-1.941297 7.57306,1.786744 15.03612,8.483346 17.70695,15.888403 0.81403,2.256955 1.90979,13.34331 2.43504,24.636349 0.84776,18.227146 1.35304,21.452666 4.49991,28.724876 4.58082,10.58594 13.72813,20.47943 23.52681,25.44594 9.19267,4.65935 10.99134,4.77777 20.23159,1.33201 z m 223.81571,-59.566526 c 12.32582,-6.037094 25.81792,-16.578441 35.87096,-28.025907 7.86104,-8.951427 8.48695,-10.183764 13.02021,-25.636163 15.9053,-54.215765 12.4507,-93.265884 -10.68616,-120.793866 -3.47771,-4.137749 -6.72288,-7.103284 -7.2115,-6.590057 -0.48861,0.513194 0.86802,5.74524 3.01476,11.626735 8.6893,23.806385 10.86667,34.087564 11.5348,54.464858 0.71312,21.7501637 -0.49197,29.8100647 -8.23019,55.045325 l -4.75655,15.511708 -10.03632,9.953815 c -10.10354,10.020469 -22.5565,18.033412 -35.44802,22.809224 -6.6612,2.467727 -9.2768,6.082398 -5.5053,7.608195 2.87474,1.163003 27.24354,-11.562148 36.87464,-19.255588 4.50454,-3.598283 9.75917,-8.615603 11.67698,-11.14959 1.91779,-2.533986 4.34273,-4.607265 5.38874,-4.607293 2.6991,-5.4e-5 -10.7301,14.05555 -20.46015,21.414481 -4.49834,3.402148 -13.69395,8.940045 -20.4347,12.306464 -6.74078,3.366409 -12.25594,6.574019 -12.25594,7.128009 0,2.25603 3.2886,4.24799 5.77746,3.49951 1.46075,-0.43928 6.80058,-2.82873 11.86628,-5.30986 z m -165.55207,2.72224 c 0,-1.17405 -4.17664,-4.0448 -10.0401,-6.900902 -5.52206,-2.689799 -14.13382,-7.594475 -19.13728,-10.899287 -9.4018,-6.209936 -27.25926,-23.960696 -24.10472,-23.960696 0.98132,0 3.7697,2.445473 6.19641,5.434392 8.34614,10.279705 42.91646,31.584233 47.94796,29.548698 4.03724,-1.633311 0.81938,-5.214892 -7.9982,-8.902334 -14.91193,-6.236008 -22.51529,-11.191199 -32.93273,-21.46256 l -9.88285,-9.744259 -4.82494,-15.560993 c -7.41648,-23.91888127 -8.75784,-31.5824733 -8.77902,-50.156926 -0.0266,-23.363094 4.02282,-42.121226 13.88501,-64.318685 1.77615,-3.997705 2.8153,-7.690898 2.30922,-8.207096 -1.70779,-1.741986 -15.02613,15.328256 -19.51599,25.013842 -7.25241,15.645035 -9.03882,24.840076 -8.9096,45.859794 0.0913,14.826455 0.79314,21.5663397 3.56163,34.1962872 4.8179,21.9794998 9.44822,36.7085518 13.45715,42.8074028 7.6324,11.611228 27.59089,28.073702 43.50583,35.885192 7.79395,3.82546 15.26222,4.49493 15.26222,1.36813 z m -73.70505,-58.893703 c 0.3749,-0.39524 -0.43232,-4.857854 -1.79384,-9.916922 -4.3166,-16.0396453 -6.36328,-30.512664 -7.15213,-50.57583 -0.79509,-20.222029 -1.50228,-22.22239 -6.13106,-17.342401 -2.4005,2.530772 -2.71624,16.28166 -0.72012,31.362879 1.84065,13.9067267 7.97253,43.485586 9.42845,45.481061 1.25753,1.723535 5.10595,2.322489 6.3687,0.991213 z m 302.39384,-4.891408 c 3.43027,-7.394401 8.74834,-38.150623 9.64938,-55.805659 0.72204,-14.147825 0.57372,-15.763846 -1.60072,-17.440107 -4.88692,-3.767336 -5.37747,-2.474662 -6.17654,16.276572 -0.77017,18.072475 -4.25776,42.0846292 -7.99649,55.056022 -1.0842,3.76159 -1.97757,7.035952 -1.98532,7.276353 -0.007,0.2404 1.29962,0.2404 2.9052,0 1.84499,-0.276252 3.76021,-2.249884 5.20449,-5.363181 z m 10.19267,-11.532342 c 5.59521,-13.3353223 8.3715,-45.3093 4.06448,-46.809684 -1.09579,-0.381712 -1.62182,1.027722 -1.62182,4.345514 0,6.723304 -3.4501,29.9174967 -5.81441,39.0887502 -2.32413,9.0153998 -2.35918,9.5749598 -0.59984,9.5749598 0.75374,0 2.54094,-2.789803 3.97159,-6.19954 z m -325.97788,-0.297755 c -2.84151,-12.2276753 -5.00916,-25.569289 -5.82026,-35.822867 -0.47971,-6.064329 -1.32572,-11.026045 -1.88002,-11.026045 -3.19846,0 -2.79466,19.610392 0.74637,36.24806173 2.43085,11.42137027 4.15775,15.73029427 6.30428,15.73029427 1.47503,0 1.60437,-1.021007 0.64963,-5.129444 z m 35.20052,-30.857389 c 0.002,-5.96442 3.21786,-24.757647 5.9004,-34.486025 2.98675,-10.831634 8.66602,-23.906974 14.2058,-32.705936 4.79956,-7.623235 4.95802,-11.720725 0.45331,-11.720725 -9.93069,0 -22.5552,34.177159 -24.07777,65.18344 -0.41205,8.391262 -0.37737,16.278334 0.077,17.526798 1.26892,3.486203 3.43922,1.091177 3.4412,-3.797552 z m 245.37048,-18.241202 c 2.41935,-3.073329 2.07098,-20.455766 -0.65022,-32.442871 -1.17204,-5.163033 -3.90687,-14.063046 -6.07739,-19.777799 -2.1705,-5.714764 -3.85331,-11.954545 -3.73957,-13.866165 0.34348,-5.77216 0.18395,-6.03986 -7.24248,-12.15475 -16.48433,-13.57309 -40.07931,-25.64412 -61.98541,-31.71132 -7.78061,-2.15493 -10.1269,-0.5666 -7.3228,4.95726 1.00677,1.98326 13.3469,15.28429 27.4225,29.55789 28.83204,29.237605 37.74835,40.782706 48.31276,62.556794 4.0376,8.321843 7.82948,15.13064 8.42639,15.13064 0.5969,0 1.88218,-1.012362 2.85622,-2.249679 z m 30.23492,-38.443896 c -4.38473,-31.414279 -28.64074,-70.561679 -58.28569,-94.068909 -10.61009,-8.41335 -36.48983,-21.74415 -50.20638,-25.86157 -53.88195,-16.17432 -113.37038,1.40382 -152.87021,45.17137 -16.83255,18.65118 -30.32227,42.93947 -36.23709,65.245054 -3.87379,14.608535 -2.82572,17.41279 1.87426,5.01492 11.34578,-29.928504 36.55872,-56.257084 70.06944,-73.169924 26.89258,-13.57267 44.56283,-17.58778 77.19777,-17.54122 18.86156,0.0268 24.89698,0.55804 35.65227,3.13753 39.58068,9.49275 71.05769,29.84588 93.48467,60.4475 6.46553,8.822218 10.9221,17.363997 16.85696,32.309177 1.2697,3.19735 2.54757,5.813351 2.83971,5.813351 0.29216,0 0.12309,-2.923777 -0.37571,-6.497279 z m -292.62933,-1.367866 c 3.4414,-7.083017 8.95622,-14.235784 20.65641,-26.791543 22.60695,-24.26008 49.30133,-40.49112 80.37259,-48.86905 22.36056,-6.02922 53.74928,-6.24056 80.33643,-0.54091 11.66565,2.50085 35.44207,12.123 47.05295,19.04199 16.75265,9.98306 38.09464,29.8871 50.14346,46.765025 3.94697,5.528902 7.41474,10.052529 7.70613,10.052529 1.09756,0 -4.62746,-12.540511 -9.06004,-19.845797 -5.93863,-9.787387 -23.54294,-29.105977 -34.38984,-37.738707 -17.36503,-13.82028 -44.00482,-25.56178 -70.01625,-30.85968 -13.67505,-2.78529 -43.29811,-3.09566 -57.82283,-0.60584 -12.69787,2.17667 -37.40244,10.57502 -48.71731,16.56151 -12.88449,6.81696 -28.26561,17.80238 -37.46472,26.75784 -12.9996,12.65533 -28.08407,35.480884 -31.80341,48.124427 -1.4003,4.760194 0.24094,3.640101 3.00643,-2.051794 z m 70.08766,-34.350833 c 13.24804,-8.93713 18.58656,-11.68215 29.5425,-15.19051 10.43521,-3.34161 14.7608,-7.03259 12.56801,-10.72421 -4.76859,-8.02805 -29.54402,3.53401 -48.76386,22.75689 -6.84014,6.84122 -8.23898,9.80967 -4.6227,9.80967 0.7786,0 5.85282,-2.99332 11.27605,-6.65184 z"
           style="fill:#020202;stroke-width:1.33218157" />
      </g>
    </g>
  </g>
</svg>
