<?xml version="1.0" encoding="UTF-8" standalone="no"?>
<svg
   xmlns:dc="http://purl.org/dc/elements/1.1/"
   xmlns:cc="http://creativecommons.org/ns#"
   xmlns:rdf="http://www.w3.org/1999/02/22-rdf-syntax-ns#"
   xmlns:svg="http://www.w3.org/2000/svg"
   xmlns="http://www.w3.org/2000/svg"
   id="svg8"
   version="1.1"
   viewBox="0 0 512 512"
   height="1935.1182"
   width="1935.1182">
  <defs
     id="defs2" />
  <metadata
     id="metadata5">
    <rdf:RDF>
      <cc:Work
         rdf:about="">
        <dc:format>image/svg+xml</dc:format>
        <dc:type
           rdf:resource="http://purl.org/dc/dcmitype/StillImage" />
        <dc:title></dc:title>
      </cc:Work>
    </rdf:RDF>
  </metadata>
  <g
     transform="translate(0,215)"
     id="layer1">
    <g
       id="g1029"
       transform="matrix(1.1389494,0,0,1.0508984,895.12275,20.33625)">
      <path
         id="path1031"
         d="m -550.75586,260.18996 c 18.93204,-2.29697 40.97996,-11.03022 46.13116,-31.48982 9.60124,-20.02837 -26.20773,-22.32619 -7.74888,-37.13672 3.79368,-8.52778 11.17565,-30.08134 5.2454,-8.26242 -8.18084,14.20478 -12.21489,19.56815 1.9508,30.12131 9.9079,22.01849 -13.76583,43.12951 -34.22169,45.75729 -3.90257,-0.48594 -7.51483,3.32095 -11.35679,1.01036 z m -6.72124,-1.33494 c -19.35144,-2.2311 -33.40511,-22.12617 -29.30668,-41.04824 1.06289,-19.64531 18.1102,-32.99074 25.00864,-50.056 6.72183,-9.47712 -7.52077,20.00368 -13.47732,24.34026 -13.42998,17.75858 -16.23443,48.98548 5.88892,61.17025 2.11607,2.93369 28.46413,7.21457 11.88644,5.59373 z m 4.26544,-4.23462 c 0.17986,-10.36045 17.08749,3.57721 0,0 z m 17.39188,-3.05323 c 6.80891,-10.97513 14.0201,2.06947 0,0 z m -29.12536,-0.0853 c -19.1538,-9.26841 8.45209,-6.61738 0,0 z m 8.62417,-5.28143 c -19.51051,-1.91934 -31.33878,-24.87221 -19.45286,-41.5471 9.42092,-18.37345 27.47767,-34.97951 23.44004,-57.67379 -2.93207,-16.17281 -15.24538,-47.941285 -17.50404,-54.204745 0.78912,29.283135 -17.74331,55.231435 -37.94818,74.696915 -15.57996,14.97397 -40.64166,28.98499 -40.45941,52.8183 7.68151,-1.2361 18.25945,-27.16761 13.56327,-5.42241 -9.0038,27.41611 -58.21342,22.97065 -59.20376,-7.02224 -0.58153,-21.90191 14.10763,30.01116 17.90637,12.19303 -9.8114,-15.12205 -5.85812,-36.20692 5.73494,-49.34059 20.89373,-24.50285 45.49374,-49.79117 49.23736,-83.378465 -2.51416,-16.679314 -8.53479,-44.784112 -0.69508,-52.929415 -16.52524,11.134381 -37.06495,-20.505474 -19.6653,-23.549156 9.25812,14.582102 31.76123,15.247379 41.52826,1.827924 6.37488,-3.550501 4.00223,-5.796018 5.41045,-15.055382 2.32332,-11.282201 -7.30717,-34.293129 -1.07487,-31.730668 -13.67434,-10.120007 -36.54495,-33.291481 -50.51188,-9.412613 -7.26904,7.392092 -0.15372,37.5609187 -10.41308,13.614383 -7.11954,-18.635056 -11.51124,-46.546223 4.21495,-61.56522 35.25863,-23.577928 80.34346,-32.320228 121.97406,-24.707608 19.1207,5.52209 46.89992,8.49932 52.31303,31.600457 8.02911,17.48484 4.6717,49.038548 -5.92954,59.190594 4.02375,-18.971333 -10.74954,-53.060156 -33.92973,-38.395034 -15.85551,12.480752 -21.9914,27.357198 -18.23232,47.406867 4.68789,15.303055 -2.93872,18.887136 16.28512,26.457324 17.3462,15.809158 38.3213,-29.486308 41.77055,-2.565945 4.29991,19.047284 -27.3512,17.693444 -27.9855,21.768863 15.89149,13.042404 7.84309,36.470011 12.23118,54.207207 5.32023,36.578677 41.89994,59.799347 44.92407,96.948737 1.91373,18.51597 -7.68337,39.07564 -25.51912,45.64196 -0.0616,-22.52275 -1.18033,-47.61756 -18.54892,-64.46628 -10.89303,-14.41479 -17.94545,-31.55735 -19.55298,-49.72238 -1.94648,15.52396 4.925,39.53144 1.4055,58.34422 -2.39724,23.27756 -25.76381,34.83292 -34.35622,54.9808 5.90927,22.79665 31.25757,-8.4304 32.70508,-14.87357 12.72161,17.50228 -10.98307,34.80673 -27.37422,35.9288 -5.40941,0.90121 -10.88659,0.80096 -16.28722,-0.0638 z M -571.15623,83.943518 c -1.2765,-1.260346 0.63877,4.082857 0,0 z m -15.23009,-62.15895 c 15.48033,-14.817527 -7.07668,-2.897192 -7.19731,5.313921 3.04357,-0.599182 4.83124,-3.692256 7.19731,-5.313921 z m 52.80695,0.147793 c -6.73733,-10.277718 -24.47118,-13.838255 -6.72123,-2.215406 2.10795,0.113019 4.84427,4.279363 6.72123,2.215406 z m -4.10742,-62.80913 c -3.54017,-3.458954 -6.27964,4.006629 0,0 z m -56.09848,-7.190731 c -6.73549,-18.629932 -25.65633,-38.443973 -47.12705,-31.35604 -9.19518,3.445357 -16.76778,24.485652 -5.88495,8.180855 20.68721,-17.882074 44.27045,7.348923 53.29205,25.640988 z m 53.15016,-12.284435 c 6.71095,-17.486115 26.4522,-36.197781 46.34705,-26.561735 23.67348,21.151418 -8.19873,-18.52469 -21.12696,-4.039082 -15.56554,3.41131 -27.62054,26.523644 -27.05663,35.461096 l 0.85102,-2.482719 0.98552,-2.377557 z m 20.49822,303.421595 c 7.97383,-11.88078 9.89558,3.3789 0,0 z m -150.10764,-4.69981 c -10.13083,2.60876 -29.4402,-18.12283 -25.01794,-18.37084 13.78864,27.92376 63.07323,20.60783 66.37538,-11.00803 -1.89088,-23.7656 26.91336,-29.50583 36.29635,-47.96874 6.91485,-7.63456 19.76705,-40.71861 28.47845,-19.94363 7.47631,20.81726 -2.02988,-7.67882 -7.97884,-5.22441 -12.42379,11.81893 -18.52068,26.45275 -29.85844,39.17657 -21.99499,9.4145 -24.1349,29.96179 -31.32815,49.08845 -7.88539,11.36491 -23.51494,16.8155 -36.96681,14.25063 z m 191.60861,-8.55799 c -0.9783,-7.89666 -0.7104,-28.3106 -1.48341,-30.45638 6.22112,8.8357 -2.96148,28.59809 6.34181,31.49812 l -1.61111,0.0771 z m 6.2945,-0.31317 c 3.91699,-2.69401 3.91704,2.694 0,0 z m 3.73402,-1.4006 c 12.38294,-1.42742 31.07527,-42.58326 18.66109,-14.67578 -4.24589,5.81586 -11.83093,14.27468 -18.66109,14.67578 z m -66.46558,-3.38009 c 3.57965,-9.4029 21.14318,-29.27806 12.32249,-6.93942 -1.33947,3.05881 -9.00301,10.2883 -12.32249,6.93942 z m -163.39081,-9.8342 c -3.21974,-16.57988 3.80169,-3.84178 -0.008,1.63527 z m 0.40081,-11.37823 c -4.21628,-11.29584 15.0343,-15.29588 8.40149,-9.81336 -2.27,-8.45846 -7.68159,8.20446 -8.40149,9.81336 z m 8.94569,-1.14087 c -5.79851,-12.86623 6.71981,0.9422 0,0 z m 243.66082,-3.92265 c 1.7687,-6.32981 1.7687,6.32981 0,0 z m -241.46668,-0.85254 c -2.41291,-9.1213 3.51026,-3.49115 0,0 z m 203.63505,-2.76378 c -2.93611,-8.73554 -32.95381,-33.98098 -11.46894,-16.5616 3.14455,2.74927 15.03195,16.3097 11.46894,16.5616 z m 39.32523,-10.2247 c 1.44205,-10.47082 -10.86049,-42.66896 -0.30291,-15.75413 3.76795,7.77361 0.30893,41.24477 0.30291,15.75413 z m -241.60272,2.69717 c 1.89989,-9.78813 18.6072,-25.38416 -2.41916,-18.00334 -15.32793,4.39074 -33.53636,2.38733 -47.23174,-5.54925 -14.18291,-6.45152 -28.02611,-17.03909 -34.44844,-31.43593 -5.64108,-10.50241 -12.31584,-24.60814 -1.39816,-6.46428 6.07567,18.05752 22.33184,30.22914 39.002,38.15525 17.1376,11.85798 48.13627,1.06619 59.31103,3.4344 -5.27627,2.84319 -12.98877,27.9427 -12.81553,19.86315 z m 11.58704,-20.23503 c -1.75975,-2.51765 -2.13825,1.39675 0,0 z m -29.35024,-1.72489 c -19.32706,-11.68183 26.22942,-1.56384 0,0 z m -20.87234,-2.84106 c -14.62568,-12.58426 20.75697,-2.15267 0,0 z m 39.20722,0.0524 c -0.39988,-10.37039 21.23157,-4.53494 3.97517,0.003 z m 125.2764,-4.29851 c 1.67733,-14.08366 1.67731,14.08368 0,0 z m 124.71629,1.09612 c -8.4484,-3.47529 23.10655,1.57856 29.87217,-3.64767 17.37919,-4.67834 32.67248,-16.42421 42.47096,-31.25673 4.92073,-9.65084 14.99907,-35.451955 7.91657,-12.40402 -5.79864,16.14032 -18.01052,27.78653 -31.66833,37.42808 -14.55707,7.87792 -31.99421,12.33242 -48.59137,9.88034 z m -8.96165,-2.10926 c -18.73192,-5.93931 11.36073,0.28826 0,0 z m -295.85903,-2.09252 c -16.87743,-6.96941 6.49576,-14.54056 3.10326,-0.71046 l -2.00313,1.19228 z m 25.88933,-1.37602 c -34.49705,-7.57016 -61.88058,-46.20076 -48.65312,-80.876015 2.65411,-17.015996 21.79384,-21.515923 21.80345,-1.418214 -6.59103,22.412854 9.2879,44.649049 30.95696,50.238689 24.90154,7.40353 49.76531,-11.16839 64.22516,-29.908385 6.81535,-9.519032 12.86912,-40.649268 14.73752,-12.854605 3.90499,25.27519 -7.62907,51.45976 -29.80693,64.50263 -15.71578,10.70834 -34.75206,11.70958 -53.26304,10.3159 z m 153.46825,-1.72964 c 1.80647,-5.08246 1.80651,5.08244 0,0 z m 143.88635,0.42455 c 4.73528,-12.65713 21.0418,-0.20377 4.02637,1.05152 l -2.63088,-0.34658 z m -19.91686,-6.1939 c -21.17234,-3.22122 -36.7333,-22.23518 -45.23247,-40.641 -3.70177,-7.563275 -10.28292,-42.388391 -4.8034,-36.389492 8.14372,23.725167 32.24888,45.558492 58.81084,38.407112 19.34396,-3.70993 39.55755,-24.631246 24.41759,-44.050198 -13.59681,-16.483885 -7.78597,-49.054406 15.60012,-53.181597 13.37058,-2.779248 30.61217,7.521217 32.7357,20.320935 -14.12037,-20.314523 -45.15494,-1.235248 -23.65105,16.635427 21.42797,21.551265 16.1667,58.853733 -5.13394,78.533693 -13.56376,12.86741 -33.70023,22.88283 -52.74339,20.36512 z m 41.12942,-1.83841 c 0.57265,-13.32585 19.06924,0.68555 1.29231,0.79889 l -1.29236,-0.79886 z m -360.01479,-2.57342 c -14.25836,-8.79302 -0.18282,-16.62531 3.51226,-1.82705 -0.28587,1.20929 -2.36918,3.6323 -3.51226,1.82705 z m 374.96527,-8.37077 c -0.10463,-16.49098 20.94982,-5.05816 0,0 z m 9.77426,-12.19874 c 1.30467,-12.43712 13.38785,6.37319 0,0 z m -400.39006,-2.46448 c -8.61875,-27.311795 14.04328,5.77922 0,0 z m 67.18001,-0.15706 c -11.05491,-2.29833 -23.75106,-12.18621 -6.53453,-3.50511 21.75716,8.49686 43.59793,-7.78819 56.64938,-23.994605 2.99174,-8.665617 13.60009,-22.892816 7.38907,-29.459767 -9.78274,-2.338258 -28.84861,-14.264385 -8.21484,-4.696195 24.28494,2.761727 4.59074,31.213952 -3.96154,41.889822 -11.45766,11.862045 -28.3113,21.861515 -45.32754,19.765855 z m -75.5798,-12.80663 c -3.56578,-7.032625 -0.97226,-30.140215 2.47813,-25.739415 -6.44026,2.717366 2.59456,50.520905 -2.47813,25.739415 z m 55.68616,3.43031 c -25.09005,-9.863845 -4.37533,-39.688215 -21.16343,-53.109697 -14.219,-7.765653 17.71618,4.145039 8.81118,15.841716 -5.11743,15.904686 5.69578,32.442181 12.35225,37.267981 z m 359.56279,-1.61093 c 1.96937,-20.161645 16.02353,1.81347 0,0 z m -84.44882,-4.37338 c -12.42317,-9.101645 17.60091,2.26264 0,0 z m 8.99548,-3.15273 c -4.84496,-7.326245 -26.77681,-4.444955 -6.56837,-5.922455 9.3603,11.883375 22.62402,1.13644 34.34036,-0.6498 19.21454,-15.347588 -3.00886,-32.242092 -4.31426,-48.926779 -4.1517,-22.791216 18.20209,-44.99606495 40.9203,-38.854345 -20.23798,-2.075147 -41.64428,12.915649 -39.56668,34.794287 -1.71923,19.227025 26.07156,37.982897 3.15781,54.338557 -7.6817,1.84287 -22.28123,9.125055 -27.96916,5.220535 z m 86.4844,-3.843185 c 3.33041,-18.160625 4.23278,-3.09164 0,0 z m -422.38088,-2.68529 c 0.17801,-31.448029 9.68432,10.920075 0,0 z m 310.40981,-0.78607 c -10.1548,-18.004477 14.70739,10.430385 0,0 z m 8.44456,-1.86461 c -6.98517,-7.858847 -16.4166,-15.164454 -1.51393,-5.370795 1.95163,-0.484849 4.73896,11.465615 1.51393,5.370795 z m 97.28973,-4.313 c -6.12858,-14.953855 12.43281,-9.90881 2.80055,0.88258 l -2.80051,-0.88258 z m 9.29031,-4.225677 c -2.56785,-20.058539 -12.59167,-36.6095 -27.34226,-49.820961 4.71865,-14.839929 32.36215,11.098896 11.91425,-1.87921 -21.08631,-5.327433 0.57518,14.200519 6.6978,20.257873 4.37843,4.708015 12.37171,35.881475 8.73021,31.442298 z m -125.8075,-2.388358 c -10.54443,-21.484371 13.72676,5.181031 0,0 z m 7.29708,-2.44182 c -12.09735,-7.924484 -10.22224,-31.490805 -2.24042,-25.736472 -17.40007,3.724642 6.99844,22.294518 2.24042,25.736472 z m -307.68332,-1.198464 c -3.84521,-12.203815 20.80013,-26.717879 3.02927,-9.615552 -2.35235,1.206264 1.08121,13.955717 -3.02927,9.615552 z m 5.7391,-4.492953 c 4.88662,-17.910418 15.81627,-5.68979 0,0 z m 406.4968,-9.57903 c -14.55294,-24.108684 15.59044,1.146254 0,0 z m -400.28703,-5.361158 c 7.7234,-6.55238 16.36378,-4.372096 2.19196,-0.239837 l -1.48874,1.003076 z m 123.22268,-0.566115 c -21.58702,-7.228081 -45.61956,-17.499515 -56.81457,-38.495048 5.27942,-1.409609 22.89777,23.194078 36.93286,26.70692 3.4295,3.311621 36.20127,10.921366 19.88171,11.788128 z m 149.55063,-5.312022 c 6.93553,-10.201876 26.22638,-12.561653 35.24992,-23.905964 13.49874,-9.353845 23.01185,-31.4189628 29.36643,-40.150522 1.98122,31.421587 -27.45906,51.956614 -53.23068,62.695591 -3.24424,-1.347796 -9.28113,6.579737 -11.38567,1.360895 z m -178.19925,0.465966 c -9.33873,-3.92239 -24.54368,-17.859082 -7.49391,-5.911905 1.75658,0.636945 16.92337,9.514745 7.49391,5.911905 z m 29.95553,-0.853831 c -25.30268,-8.23685 -52.65783,-23.682621 -62.59454,-49.93290895 -9.98154,-33.35573405 -12.71748,-71.99539205 3.41238,-103.87513405 11.44752,-17.1669 27.57398,-31.04753 45.05551,-41.72685 30.9869,-12.12243 63.75902,-20.69236 97.31625,-18.48033 39.48226,-0.44342 82.04492,10.60653 108.86127,41.39096 26.43944,25.626716 27.47583,67.332676 19.0931,100.951707 -8.6603,30.019429 -32.95612,56.452281 -62.97915,65.337138 9.69416,-9.138159 29.72788,-16.864256 38.72292,-31.079275 26.60635,-29.082121 28.72331,-73.633183 17.11968,-109.707228 -8.58593,-22.825842 -32.49015,-35.124152 -52.95771,-45.669682 -46.79656,-18.8836 -101.15431,-19.27937 -147.87579,-0.002 -23.77227,11.70006 -49.81242,25.20201 -61.97076,50.055989 -7.32729,31.210176 -8.44404,66.695084 9.69447,94.563674 11.83459,21.128564 32.1596,36.421905 54.07508,45.400008 1.69361,2.873376 -3.43244,3.970031 -4.97271,2.773772 z m 171.95166,-0.861387 c 12.06829,-7.757382 9.30885,-3.788483 0.7468,0.619102 z m 10.45526,-5.786889 c 14.95381,-10.895723 30.64609,-23.869712 34.15932,-43.008822 26.72139,0.441529 29.73379,-31.452642 29.3372,-51.680196 3.58309,-19.003822 0.32263,-42.33013 -17.68911,-51.426309 14.67714,1.58766 17.53088,19.743046 20.65816,31.217738 -4.42738,19.512627 2.97184,43.514804 -9.62128,60.118016 -8.56542,14.837865 -27.37777,12.263629 -30.38434,32.431946 -7.08488,8.561651 -16.20885,18.932506 -26.45995,22.347627 z m 79.21561,-2.164064 c -9.12145,-17.564485 14.53073,10.712309 0,0 z m -315.809,-7.297111 c -21.00278,-25.299186 18.47592,16.561919 0,0 z m 339.0867,3.807105 c -8.06956,-2.668626 13.18415,0.999209 3.18644,-10.775704 -1.88811,-11.63936 -32.36616,-27.50354595 -8.02059,-14.282987 6.36268,3.725094 19.10946,27.491886 4.83415,25.058691 z m -347.25956,-14.00034 c -10.30923,-20.088966 5.38945,-1.124872 0,0 z m 80.90336,-7.457861 c -13.02041,2.101377 -24.71356,-32.634774 -9.71699,-10.727822 7.65424,17.46555 42.80252,-14.5883232 25.32478,6.611181 -4.25825,2.963173 -10.504,5.279642 -15.60779,4.116641 z m -93.03775,-3.623148 c -10.81027,1.768886 -27.68951,-31.250393 -11.19868,-9.821465 1.97333,12.292931 33.57872,8.307984 11.19868,9.821419 z m -4.72975,-6.459679 c -4.26977,-27.513558 -8.10983,-55.271993 -8.68094,-83.143798 3.38006,-18.705578 14.4202,-4.589849 10.02206,8.270444 0.77855,25.428854 6.46552,50.225456 9.51465,75.36052 -3.61089,-0.115927 -7.30492,0.333695 -10.85577,-0.487166 z M -374.51008,6.62163 c 2.91693,-2.671573 2.91693,2.671573 0,0 z M -517.47194,5.971827 c -23.26707,-10.4514981 28.44249,0.124058 22.44502,-24.525413 9.17465,-17.104979 2.13544,33.346532 -22.44502,24.525413 z m -209.2384,-9.280966 c -11.09928,-16.551133 -6.85639,-39.300181 -8.4393,-58.642774 6.84608,-23.659044 5.33629,17.241553 8.40478,24.807078 -1.95327,6.924896 9.36516,39.353883 0.0345,33.835696 z m 305.54923,-9.982027 c 3.61112,-28.009653 4.35351,-56.405479 7.11204,-84.417172 19.07798,6.308473 4.67605,35.007734 6.70876,50.985613 -5.97143,12.999146 6.92587,45.037344 -14.35381,43.113923 z m -314.05538,6.0286414 c -3.2877,-6.1162904 -4.25941,-49.5768774 -1.64313,-23.7535944 -1.1734,4.164469 4.5763,25.9591354 1.64313,23.7535944 z m 327.48705,-12.6053414 c 3.19418,-21.170159 1.85853,-43.282118 6.39123,-64.001033 10.62299,14.382048 1.98612,35.811679 2.88943,53.297453 2.55994,6.618601 -13.13591,31.50571405 -9.28066,10.70358 z m -233.97036,-0.22412 c -16.15366,-21.5946 24.38001,-20.345079 7.70596,0.06583 -3.83934,1.378823 -3.94034,1.021029 -7.70596,-0.06583 z m 114.46827,-6.900639 c -22.91247,-13.311796 18.45417,-27.578078 6.85179,-3.406935 -1.90435,0.439614 -4.69554,5.511281 -6.85179,3.406935 z m -163.68707,-11.28789 c -5.19377,-18.75364 -12.56318,-43.844199 0.51036,-60.661918 13.4029,-18.128467 33.69248,-30.712207 54.56805,-38.210967 -7.83329,13.85806 -19.46461,29.29031 -27.17391,44.759146 -10.1631,17.529233 -17.91229,36.887769 -27.01125,54.670332 z m -48.64015,-17.447934 c -0.80655,-13.016361 6.80014,-25.186131 1.39781,-5.799341 0.66976,10.226202 -1.69265,28.730519 -1.39781,5.799341 z m 4.55381,-21.751515 c 6.72783,-14.167483 24.69783,-13.418975 21.41916,-33.548276 9.28241,-37.48528 34.93981,-70.53053 69.12943,-89.15081 9.21163,-6.39848 17.38944,-7.99134 2.59038,-0.0139 -40.10395,20.97743 -68.07467,62.11509 -73.94062,106.870358 -5.442,2.420658 -20.27797,16.618132 -19.19835,15.842648 z m 310.64568,-14.334933 c -9.41963,-33.730983 -41.20915,-53.197113 -71.13309,-66.711723 -50.19805,-22.32626 -110.30141,-15.89979 -157.57568,10.87695 -23.51786,11.91651 -43.66959,30.80108 -56.09202,54.15928 1.72618,-24.03742 13.82703,-47.62573 28.69212,-66.6925 32.15263,-42.23461 88.22938,-64.54214 140.52994,-55.25122 47.91651,9.09837 90.38548,42.42498 109.04231,87.59036 2.43874,5.80819 15.65478,38.669331 6.53642,36.028853 z m -232.41041,-2.588904 c 7.90247,-15.854149 14.8524,-34.555349 29.84412,-45.123459 28.27004,-10.02068 59.44247,-13.473 89.03713,-8.1978 15.96618,9.89968 31.62087,21.49506 41.64926,37.84218 -19.15822,-5.0634 -41.80428,-13.80072 -63.51031,-11.634 -34.08443,-0.57399 -68.69467,9.73569 -96.30578,29.487989 l -0.71442,-2.37492 z m 239.41414,-10.301499 c -7.6265,-37.02661 -30.10598,-69.91156 -61.513,-91.02391 12.94021,5.04486 26.55066,20.6732 36.70171,32.59934 12.85572,16.78103 21.14435,36.31652 25.93217,57.21684 4.10031,3.02795 3.23614,6.103326 -1.12088,1.20773 z m -188.66384,-58.20578 c 16.81489,-6.27838 39.71463,-7.33707 59.11924,-5.57054 10.63522,-0.70502 40.79971,8.06509 12.57396,3.97092 -23.1815,-1.04732 -47.00965,-3.00636 -69.70673,2.29007 l -1.98647,-0.69041 z m 124.31218,-34.39361 c 0.0858,-5.50345 3.48047,4.3798 0,0 z m -3.4948,-2.3263 c -8.0393,-4.87216 -31.69204,-17.16193 -10.43542,-7.52131 1.13736,0.30599 18.87246,10.23234 10.43542,7.52131 z m -146.20872,-7.12476 c 9.98699,-5.60756 20.75085,-10.05057 31.83732,-11.48611 -9.42166,3.29764 -22.71711,8.32347 -31.83732,11.48611 z m 118.94552,-6.44538 c -8.10225,-7.04473 13.52646,4.99655 0,0 z m -5.43129,-2.32356 c 2.91696,-2.67157 2.9169,2.67158 0,0 z m -3.73402,-1.46148 c 3.917,-2.694 3.91705,2.69399 0,0 z m -3.73402,-0.72165 c -13.65977,-1.52652 -21.61258,-6.39966 -4.48083,-2.32789 1.54833,-1.3864 12.7086,4.4838 4.48083,2.32789 z m -73.18681,-1.55353 c 8.00816,-2.98059 12.15436,0.83906 0.19022,0.5406 z m 9.70845,-2.11468 c 11.43254,-2.02067 40.61677,-2.20611 41.54444,-0.22831 -13.81021,-0.35904 -27.91621,0.73988 -41.54444,0.22831 z"
         style="fill:#333333;fill-opacity:1;stroke-width:0.73873067" />
    </g>
  </g>
</svg>
